<mxfile host="65bd71144e">
    <diagram id="LidXBMy6dDPdXjtKNdpC" name="Page-1">
        <mxGraphModel dx="1571" dy="20951" grid="0" gridSize="10" guides="1" tooltips="1" connect="1" arrows="1" fold="1" page="0" pageScale="1" pageWidth="10000" pageHeight="10000" background="#ffffff" math="0" shadow="0">
            <root>
                <mxCell id="0"/>
                <mxCell id="1" parent="0"/>
                <mxCell id="hXesR2zMLgFzcu8kpUQh-40" value="label_0000" style="swimlane;childLayout=stackLayout;horizontal=1;startSize=30;horizontalStack=0;rounded=1;fontSize=14;fontStyle=0;strokeWidth=2;resizeParent=0;resizeLast=1;shadow=0;dashed=0;align=center;fontColor=#330000;" parent="1" vertex="1">
                    <mxGeometry x="1010" y="-19900" width="180" height="160" as="geometry"/>
                </mxCell>
                <mxCell id="hXesR2zMLgFzcu8kpUQh-41" value="0000    60  PUSH1 0x80&#10;&#9;0002    60  PUSH1 0x40&#10;&#9;0004    52  MSTORE&#10;&#9;0005    34  CALLVALUE&#10;&#9;0006    80  DUP1&#10;&#9;0007    15  ISZERO&#10;&#9;0008    61  PUSH2 0x0010&#10;&#9;000B    57  *JUMPI" style="align=left;strokeColor=none;fillColor=none;spacingLeft=4;fontSize=12;verticalAlign=top;resizable=0;rotatable=0;part=1;fontColor=#330000;" parent="hXesR2zMLgFzcu8kpUQh-40" vertex="1">
                    <mxGeometry y="30" width="180" height="130" as="geometry"/>
                </mxCell>
                <mxCell id="hXesR2zMLgFzcu8kpUQh-43" value="label_000C" style="swimlane;childLayout=stackLayout;horizontal=1;startSize=30;horizontalStack=0;rounded=1;fontSize=14;fontStyle=0;strokeWidth=2;resizeParent=0;resizeLast=1;shadow=0;dashed=0;align=center;fontColor=#330000;" parent="1" vertex="1">
                    <mxGeometry x="462.5" y="-19630" width="180" height="90" as="geometry"/>
                </mxCell>
                <mxCell id="hXesR2zMLgFzcu8kpUQh-44" value="&#9;000C    60  PUSH1 0x00&#10;&#9;000E    80  DUP1&#10;&#9;000F    FD  *REVERT" style="align=left;strokeColor=none;fillColor=none;spacingLeft=4;fontSize=12;verticalAlign=top;resizable=0;rotatable=0;part=1;fontColor=#330000;" parent="hXesR2zMLgFzcu8kpUQh-43" vertex="1">
                    <mxGeometry y="30" width="180" height="60" as="geometry"/>
                </mxCell>
                <mxCell id="hXesR2zMLgFzcu8kpUQh-45" value="label_0010" style="swimlane;childLayout=stackLayout;horizontal=1;startSize=30;horizontalStack=0;rounded=1;fontSize=14;fontStyle=0;strokeWidth=2;resizeParent=0;resizeLast=1;shadow=0;dashed=0;align=center;fontColor=#330000;" parent="1" vertex="1">
                    <mxGeometry x="1010" y="-19630" width="180" height="140" as="geometry"/>
                </mxCell>
                <mxCell id="hXesR2zMLgFzcu8kpUQh-46" value="&#9;0010    5B  JUMPDEST&#10;&#9;0011    50  POP&#10;&#9;0012    60  PUSH1 0x04&#10;&#9;0014    36  CALLDATASIZE&#10;&#9;0015    10  LT&#10;&#9;0016    61  PUSH2 0x0041&#10;&#9;0019    57  *JUMPI" style="align=left;strokeColor=none;fillColor=none;spacingLeft=4;fontSize=12;verticalAlign=top;resizable=0;rotatable=0;part=1;fontColor=#330000;" parent="hXesR2zMLgFzcu8kpUQh-45" vertex="1">
                    <mxGeometry y="30" width="180" height="110" as="geometry"/>
                </mxCell>
                <mxCell id="hXesR2zMLgFzcu8kpUQh-47" value="label_001A" style="swimlane;childLayout=stackLayout;horizontal=1;startSize=30;horizontalStack=0;rounded=1;fontSize=14;fontStyle=0;strokeWidth=2;resizeParent=0;resizeLast=1;shadow=0;dashed=0;align=center;fontColor=#330000;" parent="1" vertex="1">
                    <mxGeometry x="1010" y="-19440" width="180" height="170" as="geometry"/>
                </mxCell>
                <mxCell id="hXesR2zMLgFzcu8kpUQh-48" value="&#9;001A    60  PUSH1 0x00&#10;&#9;001C    35  CALLDATALOAD&#10;&#9;001D    60  PUSH1 0xe0&#10;&#9;001F    1C  SHR&#10;&#9;0020    80  DUP1&#10;&#9;0021    63  PUSH4 0x0dbe671f&#10;&#9;0026    14  EQ&#10;&#9;0027    61  PUSH2 0x0046&#10;&#9;002A    57  *JUMPI" style="align=left;strokeColor=none;fillColor=none;spacingLeft=4;fontSize=12;verticalAlign=top;resizable=0;rotatable=0;part=1;fontColor=#330000;" parent="hXesR2zMLgFzcu8kpUQh-47" vertex="1">
                    <mxGeometry y="30" width="180" height="140" as="geometry"/>
                </mxCell>
                <mxCell id="hXesR2zMLgFzcu8kpUQh-49" value="label_002B" style="swimlane;childLayout=stackLayout;horizontal=1;startSize=30;horizontalStack=0;rounded=1;fontSize=14;fontStyle=0;strokeWidth=2;resizeParent=0;resizeLast=1;shadow=0;dashed=0;align=center;fontColor=#330000;" parent="1" vertex="1">
                    <mxGeometry x="1010" y="-19220" width="180" height="110" as="geometry"/>
                </mxCell>
                <mxCell id="hXesR2zMLgFzcu8kpUQh-50" value="&#9;002B    80  DUP1&#10;&#9;002C    63  PUSH4 0x26121ff0&#10;&#9;0031    14  EQ&#10;&#9;0032    61  PUSH2 0x0064&#10;&#9;0035    57  *JUMPI" style="align=left;strokeColor=none;fillColor=none;spacingLeft=4;fontSize=12;verticalAlign=top;resizable=0;rotatable=0;part=1;fontColor=#330000;" parent="hXesR2zMLgFzcu8kpUQh-49" vertex="1">
                    <mxGeometry y="30" width="180" height="80" as="geometry"/>
                </mxCell>
                <mxCell id="hXesR2zMLgFzcu8kpUQh-82" style="edgeStyle=orthogonalEdgeStyle;rounded=0;orthogonalLoop=1;jettySize=auto;html=1;entryX=0.5;entryY=0;entryDx=0;entryDy=0;fontSize=12;fontColor=#330000;curved=1;exitX=0.5;exitY=1;exitDx=0;exitDy=0;" parent="1" source="hXesR2zMLgFzcu8kpUQh-53" target="hXesR2zMLgFzcu8kpUQh-54" edge="1">
                    <mxGeometry relative="1" as="geometry"/>
                </mxCell>
                <mxCell id="hXesR2zMLgFzcu8kpUQh-52" value="label_0036" style="swimlane;childLayout=stackLayout;horizontal=1;startSize=30;horizontalStack=0;rounded=1;fontSize=14;fontStyle=0;strokeWidth=2;resizeParent=0;resizeLast=1;shadow=0;dashed=0;align=center;fontColor=#330000;" parent="1" vertex="1">
                    <mxGeometry x="1010" y="-19063" width="180" height="120" as="geometry"/>
                </mxCell>
                <mxCell id="hXesR2zMLgFzcu8kpUQh-53" value="&#9;0036    80  DUP1&#10;&#9;0037    63  PUSH4 0xe2179b8e&#10;&#9;003C    14  EQ&#10;&#9;003D    61  PUSH2 0x0082&#10;&#9;0040    57  *JUMPI" style="align=left;strokeColor=none;fillColor=none;spacingLeft=4;fontSize=12;verticalAlign=top;resizable=0;rotatable=0;part=1;fontColor=#330000;" parent="hXesR2zMLgFzcu8kpUQh-52" vertex="1">
                    <mxGeometry y="30" width="180" height="90" as="geometry"/>
                </mxCell>
                <mxCell id="hXesR2zMLgFzcu8kpUQh-54" value="label_0041" style="swimlane;childLayout=stackLayout;horizontal=1;startSize=30;horizontalStack=0;rounded=1;fontSize=14;fontStyle=0;strokeWidth=2;resizeParent=0;resizeLast=1;shadow=0;dashed=0;align=center;fontColor=#330000;sketch=0;" parent="1" vertex="1">
                    <mxGeometry x="1010" y="-18850" width="180" height="95" as="geometry"/>
                </mxCell>
                <mxCell id="hXesR2zMLgFzcu8kpUQh-55" value="&#9;0041    5B  JUMPDEST&#10;&#9;0042    60  PUSH1 0x00&#10;&#9;0044    80  DUP1&#10;&#9;0045    FD  *REVERT" style="align=left;strokeColor=none;fillColor=none;spacingLeft=4;fontSize=12;verticalAlign=top;resizable=0;rotatable=0;part=1;fontColor=#330000;" parent="hXesR2zMLgFzcu8kpUQh-54" vertex="1">
                    <mxGeometry y="30" width="180" height="65" as="geometry"/>
                </mxCell>
                <mxCell id="hXesR2zMLgFzcu8kpUQh-56" value="label_0046" style="swimlane;childLayout=stackLayout;horizontal=1;startSize=30;horizontalStack=0;rounded=1;fontSize=14;fontStyle=0;strokeWidth=2;resizeParent=0;resizeLast=1;shadow=0;dashed=0;align=center;fontColor=#330000;" parent="1" vertex="1">
                    <mxGeometry x="-480" y="-18923" width="180" height="100" as="geometry"/>
                </mxCell>
                <mxCell id="hXesR2zMLgFzcu8kpUQh-57" value="&#9;0046    5B  JUMPDEST&#10;&#9;0047    61  PUSH2 0x004e&#10;&#9;004A    61  PUSH2 0x00a0&#10;&#9;004D    56  *JUMP" style="align=left;strokeColor=none;fillColor=none;spacingLeft=4;fontSize=12;verticalAlign=top;resizable=0;rotatable=0;part=1;fontColor=#330000;" parent="hXesR2zMLgFzcu8kpUQh-56" vertex="1">
                    <mxGeometry y="30" width="180" height="70" as="geometry"/>
                </mxCell>
                <mxCell id="hXesR2zMLgFzcu8kpUQh-154" style="edgeStyle=orthogonalEdgeStyle;rounded=0;orthogonalLoop=1;jettySize=auto;html=1;entryX=0.25;entryY=0;entryDx=0;entryDy=0;fontSize=12;fontColor=#330000;fillColor=#0050ef;strokeColor=#001DBC;curved=1;startArrow=diamond;startFill=1;exitX=0.5;exitY=1;exitDx=0;exitDy=0;" parent="1" source="hXesR2zMLgFzcu8kpUQh-59" target="hXesR2zMLgFzcu8kpUQh-114" edge="1">
                    <mxGeometry relative="1" as="geometry"/>
                </mxCell>
                <mxCell id="hXesR2zMLgFzcu8kpUQh-58" value="label_004E" style="swimlane;childLayout=stackLayout;horizontal=1;startSize=30;horizontalStack=0;rounded=1;fontSize=14;fontStyle=0;strokeWidth=2;resizeParent=0;resizeLast=1;shadow=0;dashed=0;align=center;fontColor=#330000;" parent="1" vertex="1">
                    <mxGeometry x="-487" y="-18677" width="180" height="160" as="geometry"/>
                </mxCell>
                <mxCell id="hXesR2zMLgFzcu8kpUQh-59" value="&#9;004E    5B  JUMPDEST&#10;&#9;004F    60  PUSH1 0x40&#10;&#9;0051    51  MLOAD&#10;&#9;0052    61  PUSH2 0x005b&#10;&#9;0055    91  SWAP2&#10;&#9;0056    90  SWAP1&#10;&#9;0057    61  PUSH2 0x0173&#10;&#9;005A    56  *JUMP" style="align=left;strokeColor=none;fillColor=none;spacingLeft=4;fontSize=12;verticalAlign=top;resizable=0;rotatable=0;part=1;fontColor=#330000;" parent="hXesR2zMLgFzcu8kpUQh-58" vertex="1">
                    <mxGeometry y="30" width="180" height="130" as="geometry"/>
                </mxCell>
                <mxCell id="hXesR2zMLgFzcu8kpUQh-60" value="label_005B" style="swimlane;childLayout=stackLayout;horizontal=1;startSize=30;horizontalStack=0;rounded=1;fontSize=14;fontStyle=0;strokeWidth=2;resizeParent=0;resizeLast=1;shadow=0;dashed=0;align=center;fontColor=#330000;" parent="1" vertex="1">
                    <mxGeometry x="-550" y="-16661" width="180" height="160" as="geometry"/>
                </mxCell>
                <mxCell id="hXesR2zMLgFzcu8kpUQh-61" value="&#9;005B    5B  JUMPDEST&#10;&#9;005C    60  PUSH1 0x40&#10;&#9;005E    51  MLOAD&#10;&#9;005F    80  DUP1&#10;&#9;0060    91  SWAP2&#10;&#9;0061    03  SUB&#10;&#9;0062    90  SWAP1&#10;&#9;0063    F3  *RETURN" style="align=left;strokeColor=none;fillColor=none;spacingLeft=4;fontSize=12;verticalAlign=top;resizable=0;rotatable=0;part=1;fontColor=#330000;" parent="hXesR2zMLgFzcu8kpUQh-60" vertex="1">
                    <mxGeometry y="30" width="180" height="130" as="geometry"/>
                </mxCell>
                <mxCell id="hXesR2zMLgFzcu8kpUQh-62" value="label_0064" style="swimlane;childLayout=stackLayout;horizontal=1;startSize=30;horizontalStack=0;rounded=1;fontSize=14;fontStyle=0;strokeWidth=2;resizeParent=0;resizeLast=1;shadow=0;dashed=0;align=center;fontColor=#330000;" parent="1" vertex="1">
                    <mxGeometry x="310" y="-18923" width="180" height="100" as="geometry"/>
                </mxCell>
                <mxCell id="hXesR2zMLgFzcu8kpUQh-63" value="&#9;0064    5B  JUMPDEST&#10;&#9;0065    61  PUSH2 0x006c&#10;&#9;0068    61  PUSH2 0x00a6&#10;&#9;006B    56  *JUMP" style="align=left;strokeColor=none;fillColor=none;spacingLeft=4;fontSize=12;verticalAlign=top;resizable=0;rotatable=0;part=1;fontColor=#330000;" parent="hXesR2zMLgFzcu8kpUQh-62" vertex="1">
                    <mxGeometry y="30" width="180" height="70" as="geometry"/>
                </mxCell>
                <mxCell id="hXesR2zMLgFzcu8kpUQh-162" style="edgeStyle=orthogonalEdgeStyle;curved=1;rounded=0;orthogonalLoop=1;jettySize=auto;html=1;entryX=0.75;entryY=0;entryDx=0;entryDy=0;fontSize=12;fontColor=#330000;startArrow=diamond;startFill=1;fillColor=#d80073;strokeColor=#A50040;exitX=0.5;exitY=1;exitDx=0;exitDy=0;" parent="1" source="hXesR2zMLgFzcu8kpUQh-65" target="hXesR2zMLgFzcu8kpUQh-114" edge="1">
                    <mxGeometry relative="1" as="geometry"/>
                </mxCell>
                <mxCell id="hXesR2zMLgFzcu8kpUQh-64" value="label_006C" style="swimlane;childLayout=stackLayout;horizontal=1;startSize=30;horizontalStack=0;rounded=1;fontSize=14;fontStyle=0;strokeWidth=2;resizeParent=0;resizeLast=1;shadow=0;dashed=0;align=center;fontColor=#330000;" parent="1" vertex="1">
                    <mxGeometry x="70" y="-18170" width="180" height="160" as="geometry"/>
                </mxCell>
                <mxCell id="hXesR2zMLgFzcu8kpUQh-65" value="&#9;006C    5B  JUMPDEST&#10;&#9;006D    60  PUSH1 0x40&#10;&#9;006F    51  MLOAD&#10;&#9;0070    61  PUSH2 0x0079&#10;&#9;0073    91  SWAP2&#10;&#9;0074    90  SWAP1&#10;&#9;0075    61  PUSH2 0x0173&#10;&#9;0078    56  *JUMP" style="align=left;strokeColor=none;fillColor=none;spacingLeft=4;fontSize=12;verticalAlign=top;resizable=0;rotatable=0;part=1;fontColor=#330000;" parent="hXesR2zMLgFzcu8kpUQh-64" vertex="1">
                    <mxGeometry y="30" width="180" height="130" as="geometry"/>
                </mxCell>
                <mxCell id="hXesR2zMLgFzcu8kpUQh-66" value="label_0079" style="swimlane;childLayout=stackLayout;horizontal=1;startSize=30;horizontalStack=0;rounded=1;fontSize=14;fontStyle=0;strokeWidth=2;resizeParent=0;resizeLast=1;shadow=0;dashed=0;align=center;fontColor=#330000;" parent="1" vertex="1">
                    <mxGeometry x="-180" y="-16661" width="180" height="160" as="geometry"/>
                </mxCell>
                <mxCell id="hXesR2zMLgFzcu8kpUQh-67" value="&#9;0079    5B  JUMPDEST&#10;&#9;007A    60  PUSH1 0x40&#10;&#9;007C    51  MLOAD&#10;&#9;007D    80  DUP1&#10;&#9;007E    91  SWAP2&#10;&#9;007F    03  SUB&#10;&#9;0080    90  SWAP1&#10;&#9;0081    F3  *RETURN" style="align=left;strokeColor=none;fillColor=none;spacingLeft=4;fontSize=12;verticalAlign=top;resizable=0;rotatable=0;part=1;fontColor=#330000;" parent="hXesR2zMLgFzcu8kpUQh-66" vertex="1">
                    <mxGeometry y="30" width="180" height="130" as="geometry"/>
                </mxCell>
                <mxCell id="hXesR2zMLgFzcu8kpUQh-68" value="label_0082" style="swimlane;childLayout=stackLayout;horizontal=1;startSize=30;horizontalStack=0;rounded=1;fontSize=14;fontStyle=0;strokeWidth=2;resizeParent=0;resizeLast=1;shadow=0;dashed=0;align=center;fontColor=#330000;" parent="1" vertex="1">
                    <mxGeometry x="1445" y="-18923" width="180" height="100" as="geometry"/>
                </mxCell>
                <mxCell id="hXesR2zMLgFzcu8kpUQh-69" value="&#9;0082    5B  JUMPDEST&#10;&#9;0083    61  PUSH2 0x008a&#10;&#9;0086    61  PUSH2 0x00f5&#10;&#9;0089    56  *JUMP" style="align=left;strokeColor=none;fillColor=none;spacingLeft=4;fontSize=12;verticalAlign=top;resizable=0;rotatable=0;part=1;fontColor=#330000;" parent="hXesR2zMLgFzcu8kpUQh-68" vertex="1">
                    <mxGeometry y="30" width="180" height="70" as="geometry"/>
                </mxCell>
                <mxCell id="hXesR2zMLgFzcu8kpUQh-226" style="edgeStyle=orthogonalEdgeStyle;curved=1;sketch=0;orthogonalLoop=1;jettySize=auto;html=1;entryX=0.5;entryY=0;entryDx=0;entryDy=0;shadow=0;fontSize=12;fontColor=#330000;startArrow=diamond;startFill=1;strokeColor=#000000;elbow=vertical;" parent="1" source="hXesR2zMLgFzcu8kpUQh-70" target="hXesR2zMLgFzcu8kpUQh-224" edge="1">
                    <mxGeometry relative="1" as="geometry"/>
                </mxCell>
                <mxCell id="hXesR2zMLgFzcu8kpUQh-70" value="label_008A" style="swimlane;childLayout=stackLayout;horizontal=1;startSize=30;horizontalStack=0;rounded=1;fontSize=14;fontStyle=0;strokeWidth=2;resizeParent=0;resizeLast=1;shadow=0;dashed=0;align=center;fontColor=#330000;" parent="1" vertex="1">
                    <mxGeometry x="1050" y="-17703" width="180" height="160" as="geometry"/>
                </mxCell>
                <mxCell id="hXesR2zMLgFzcu8kpUQh-71" value="&#9;008A    5B  JUMPDEST&#10;&#9;008B    60  PUSH1 0x40&#10;&#9;008D    51  MLOAD&#10;&#9;008E    61  PUSH2 0x0097&#10;&#9;0091    91  SWAP2&#10;&#9;0092    90  SWAP1&#10;&#9;0093    61  PUSH2 0x0158&#10;&#9;0096    56  *JUMP" style="align=left;strokeColor=none;fillColor=none;spacingLeft=4;fontSize=12;verticalAlign=top;resizable=0;rotatable=0;part=1;fontColor=#330000;" parent="hXesR2zMLgFzcu8kpUQh-70" vertex="1">
                    <mxGeometry y="30" width="180" height="130" as="geometry"/>
                </mxCell>
                <mxCell id="hXesR2zMLgFzcu8kpUQh-73" style="edgeStyle=orthogonalEdgeStyle;rounded=0;orthogonalLoop=1;jettySize=auto;html=1;entryX=0.5;entryY=0;entryDx=0;entryDy=0;fontSize=12;fontColor=#330000;curved=1;startArrow=diamond;startFill=1;exitX=0.25;exitY=1;exitDx=0;exitDy=0;" parent="1" source="hXesR2zMLgFzcu8kpUQh-41" target="hXesR2zMLgFzcu8kpUQh-43" edge="1">
                    <mxGeometry relative="1" as="geometry"/>
                </mxCell>
                <mxCell id="hXesR2zMLgFzcu8kpUQh-74" style="edgeStyle=orthogonalEdgeStyle;rounded=0;orthogonalLoop=1;jettySize=auto;html=1;entryX=0.5;entryY=0;entryDx=0;entryDy=0;fontSize=12;fontColor=#330000;curved=1;startArrow=diamond;startFill=1;" parent="1" source="hXesR2zMLgFzcu8kpUQh-41" target="hXesR2zMLgFzcu8kpUQh-45" edge="1">
                    <mxGeometry relative="1" as="geometry"/>
                </mxCell>
                <mxCell id="hXesR2zMLgFzcu8kpUQh-75" style="edgeStyle=orthogonalEdgeStyle;rounded=0;orthogonalLoop=1;jettySize=auto;html=1;fontSize=12;fontColor=#330000;curved=1;startArrow=diamond;startFill=1;entryX=1;entryY=0.25;entryDx=0;entryDy=0;exitX=1;exitY=0.5;exitDx=0;exitDy=0;" parent="1" source="hXesR2zMLgFzcu8kpUQh-46" target="hXesR2zMLgFzcu8kpUQh-55" edge="1">
                    <mxGeometry relative="1" as="geometry">
                        <mxPoint x="1255" y="-18660" as="targetPoint"/>
                        <Array as="points">
                            <mxPoint x="1340" y="-19545"/>
                            <mxPoint x="1340" y="-18804"/>
                        </Array>
                    </mxGeometry>
                </mxCell>
                <mxCell id="hXesR2zMLgFzcu8kpUQh-76" style="edgeStyle=orthogonalEdgeStyle;rounded=0;orthogonalLoop=1;jettySize=auto;html=1;entryX=0.5;entryY=0;entryDx=0;entryDy=0;fontSize=12;fontColor=#330000;curved=1;startArrow=diamond;startFill=1;" parent="1" source="hXesR2zMLgFzcu8kpUQh-46" target="hXesR2zMLgFzcu8kpUQh-47" edge="1">
                    <mxGeometry relative="1" as="geometry"/>
                </mxCell>
                <mxCell id="hXesR2zMLgFzcu8kpUQh-78" style="edgeStyle=orthogonalEdgeStyle;rounded=0;orthogonalLoop=1;jettySize=auto;html=1;entryX=0.5;entryY=0;entryDx=0;entryDy=0;fontSize=12;fontColor=#330000;curved=1;startArrow=diamond;startFill=1;" parent="1" source="hXesR2zMLgFzcu8kpUQh-48" target="hXesR2zMLgFzcu8kpUQh-49" edge="1">
                    <mxGeometry relative="1" as="geometry"/>
                </mxCell>
                <mxCell id="hXesR2zMLgFzcu8kpUQh-79" style="edgeStyle=orthogonalEdgeStyle;rounded=0;orthogonalLoop=1;jettySize=auto;html=1;entryX=0.5;entryY=0;entryDx=0;entryDy=0;fontSize=12;fontColor=#330000;curved=1;startArrow=diamond;startFill=1;" parent="1" source="hXesR2zMLgFzcu8kpUQh-48" target="hXesR2zMLgFzcu8kpUQh-56" edge="1">
                    <mxGeometry relative="1" as="geometry"/>
                </mxCell>
                <mxCell id="hXesR2zMLgFzcu8kpUQh-80" style="edgeStyle=orthogonalEdgeStyle;rounded=0;orthogonalLoop=1;jettySize=auto;html=1;entryX=0.5;entryY=0;entryDx=0;entryDy=0;fontSize=12;fontColor=#330000;curved=1;startArrow=diamond;startFill=1;" parent="1" source="hXesR2zMLgFzcu8kpUQh-50" target="hXesR2zMLgFzcu8kpUQh-52" edge="1">
                    <mxGeometry relative="1" as="geometry"/>
                </mxCell>
                <mxCell id="hXesR2zMLgFzcu8kpUQh-81" style="edgeStyle=orthogonalEdgeStyle;rounded=0;orthogonalLoop=1;jettySize=auto;html=1;entryX=0.5;entryY=0;entryDx=0;entryDy=0;fontSize=12;fontColor=#330000;curved=1;startArrow=diamond;startFill=1;" parent="1" source="hXesR2zMLgFzcu8kpUQh-50" target="hXesR2zMLgFzcu8kpUQh-62" edge="1">
                    <mxGeometry relative="1" as="geometry"/>
                </mxCell>
                <mxCell id="hXesR2zMLgFzcu8kpUQh-83" style="edgeStyle=orthogonalEdgeStyle;rounded=0;orthogonalLoop=1;jettySize=auto;html=1;entryX=0.5;entryY=0;entryDx=0;entryDy=0;fontSize=12;fontColor=#330000;curved=1;startArrow=diamond;startFill=1;exitX=1;exitY=0.25;exitDx=0;exitDy=0;" parent="1" source="hXesR2zMLgFzcu8kpUQh-53" target="hXesR2zMLgFzcu8kpUQh-68" edge="1">
                    <mxGeometry relative="1" as="geometry"/>
                </mxCell>
                <mxCell id="hXesR2zMLgFzcu8kpUQh-85" value="label_0097" style="swimlane;childLayout=stackLayout;horizontal=1;startSize=30;horizontalStack=0;rounded=1;fontSize=14;fontStyle=0;strokeWidth=2;resizeParent=0;resizeLast=1;shadow=0;dashed=0;align=center;fontColor=#330000;" parent="1" vertex="1">
                    <mxGeometry x="1050" y="-16430" width="180" height="160" as="geometry"/>
                </mxCell>
                <mxCell id="hXesR2zMLgFzcu8kpUQh-86" value="&#9;0097    5B  JUMPDEST&#10;&#9;0098    60  PUSH1 0x40&#10;&#9;009A    51  MLOAD&#10;&#9;009B    80  DUP1&#10;&#9;009C    91  SWAP2&#10;&#9;009D    03  SUB&#10;&#9;009E    90  SWAP1&#10;&#9;009F    F3  *RETURN" style="align=left;strokeColor=none;fillColor=none;spacingLeft=4;fontSize=12;verticalAlign=top;resizable=0;rotatable=0;part=1;fontColor=#330000;" parent="hXesR2zMLgFzcu8kpUQh-85" vertex="1">
                    <mxGeometry y="30" width="180" height="130" as="geometry"/>
                </mxCell>
                <mxCell id="hXesR2zMLgFzcu8kpUQh-87" value="label_00A0" style="swimlane;childLayout=stackLayout;horizontal=1;startSize=30;horizontalStack=0;rounded=1;fontSize=14;fontStyle=0;strokeWidth=2;resizeParent=0;resizeLast=1;shadow=0;dashed=0;align=center;fontColor=#330000;" parent="1" vertex="1">
                    <mxGeometry x="-483" y="-18805" width="180" height="110" as="geometry"/>
                </mxCell>
                <mxCell id="hXesR2zMLgFzcu8kpUQh-88" value="&#9;00A0    5B  JUMPDEST&#10;&#9;00A1    60  PUSH1 0x00&#10;&#9;00A3    54  SLOAD&#10;&#9;00A4    81  DUP2&#10;&#9;00A5    56  *JUMP" style="align=left;strokeColor=none;fillColor=none;spacingLeft=4;fontSize=12;verticalAlign=top;resizable=0;rotatable=0;part=1;fontColor=#330000;" parent="hXesR2zMLgFzcu8kpUQh-87" vertex="1">
                    <mxGeometry y="30" width="180" height="80" as="geometry"/>
                </mxCell>
                <mxCell id="hXesR2zMLgFzcu8kpUQh-89" value="label_00A6-1" style="swimlane;childLayout=stackLayout;horizontal=1;startSize=30;horizontalStack=0;rounded=1;fontSize=14;fontStyle=0;strokeWidth=2;resizeParent=0;resizeLast=1;shadow=0;dashed=0;align=center;fontColor=#330000;" parent="1" vertex="1">
                    <mxGeometry x="310" y="-18800" width="180" height="143" as="geometry"/>
                </mxCell>
                <mxCell id="hXesR2zMLgFzcu8kpUQh-90" value="&#9;00A6    5B  JUMPDEST&#10;&#9;00A7    60  PUSH1 0x00&#10;&#9;00A9    80  DUP1&#10;&#9;00AA    60  PUSH1 0x0c&#10;&#9;00AC    90  SWAP1&#10;&#9;00AD    50  POP&#10;&#9;00AE    60  PUSH1 0x00" style="align=left;strokeColor=none;fillColor=none;spacingLeft=4;fontSize=12;verticalAlign=top;resizable=0;rotatable=0;part=1;fontColor=#330000;" parent="hXesR2zMLgFzcu8kpUQh-89" vertex="1">
                    <mxGeometry y="30" width="180" height="113" as="geometry"/>
                </mxCell>
                <mxCell id="hXesR2zMLgFzcu8kpUQh-91" style="edgeStyle=orthogonalEdgeStyle;rounded=0;orthogonalLoop=1;jettySize=auto;html=1;entryX=0.5;entryY=0;entryDx=0;entryDy=0;fontSize=12;fontColor=#330000;curved=1;startArrow=diamond;startFill=1;" parent="1" source="hXesR2zMLgFzcu8kpUQh-57" target="hXesR2zMLgFzcu8kpUQh-87" edge="1">
                    <mxGeometry relative="1" as="geometry"/>
                </mxCell>
                <mxCell id="hXesR2zMLgFzcu8kpUQh-93" style="edgeStyle=orthogonalEdgeStyle;orthogonalLoop=1;jettySize=auto;html=1;entryX=0.5;entryY=0;entryDx=0;entryDy=0;fontSize=12;fontColor=#330000;startArrow=diamond;startFill=1;curved=1;" parent="1" source="hXesR2zMLgFzcu8kpUQh-88" target="hXesR2zMLgFzcu8kpUQh-58" edge="1">
                    <mxGeometry relative="1" as="geometry">
                        <mxPoint x="880" y="-18003" as="targetPoint"/>
                    </mxGeometry>
                </mxCell>
                <mxCell id="hXesR2zMLgFzcu8kpUQh-95" value="REVERT" style="rhombus;whiteSpace=wrap;html=1;fontSize=12;fontColor=#ffffff;strokeColor=#6F0000;fillColor=#a20025;" parent="1" vertex="1">
                    <mxGeometry x="1060" y="-18710" width="80" height="80" as="geometry"/>
                </mxCell>
                <mxCell id="hXesR2zMLgFzcu8kpUQh-96" style="edgeStyle=orthogonalEdgeStyle;rounded=0;orthogonalLoop=1;jettySize=auto;html=1;fontSize=12;fontColor=#330000;entryX=0.5;entryY=0;entryDx=0;entryDy=0;startArrow=diamond;startFill=1;elbow=vertical;curved=1;" parent="1" source="hXesR2zMLgFzcu8kpUQh-55" target="hXesR2zMLgFzcu8kpUQh-95" edge="1">
                    <mxGeometry relative="1" as="geometry">
                        <mxPoint x="1100" y="-18693" as="targetPoint"/>
                    </mxGeometry>
                </mxCell>
                <mxCell id="hXesR2zMLgFzcu8kpUQh-97" style="edgeStyle=orthogonalEdgeStyle;rounded=0;orthogonalLoop=1;jettySize=auto;html=1;entryX=0.5;entryY=0;entryDx=0;entryDy=0;fontSize=12;fontColor=#330000;curved=1;startArrow=diamond;startFill=1;" parent="1" source="hXesR2zMLgFzcu8kpUQh-63" target="hXesR2zMLgFzcu8kpUQh-89" edge="1">
                    <mxGeometry relative="1" as="geometry"/>
                </mxCell>
                <mxCell id="hXesR2zMLgFzcu8kpUQh-98" value="RETURN" style="rhombus;whiteSpace=wrap;html=1;fontSize=12;fontColor=#ffffff;strokeColor=#2D7600;fillColor=#60a917;" parent="1" vertex="1">
                    <mxGeometry x="-500" y="-16461" width="80" height="80" as="geometry"/>
                </mxCell>
                <mxCell id="hXesR2zMLgFzcu8kpUQh-99" style="edgeStyle=orthogonalEdgeStyle;rounded=0;orthogonalLoop=1;jettySize=auto;html=1;exitX=0.5;exitY=1;exitDx=0;exitDy=0;entryX=0.5;entryY=0;entryDx=0;entryDy=0;fontSize=12;fontColor=#330000;curved=1;startArrow=diamond;startFill=1;" parent="1" source="hXesR2zMLgFzcu8kpUQh-61" target="hXesR2zMLgFzcu8kpUQh-98" edge="1">
                    <mxGeometry relative="1" as="geometry"/>
                </mxCell>
                <mxCell id="hXesR2zMLgFzcu8kpUQh-105" value="label_00B9" style="swimlane;childLayout=stackLayout;horizontal=1;startSize=30;horizontalStack=0;rounded=1;fontSize=14;fontStyle=0;strokeWidth=2;resizeParent=0;resizeLast=1;shadow=0;dashed=0;align=center;fontColor=#330000;" parent="1" vertex="1">
                    <mxGeometry x="512.5" y="-18410" width="180" height="110" as="geometry"/>
                </mxCell>
                <mxCell id="hXesR2zMLgFzcu8kpUQh-106" value="&#9;00B9    60  PUSH1 0x00&#10;&#9;00BB    61  PUSH2 0x00c3&#10;&#9;00BE    82  DUP3&#10;&#9;00BF    61  PUSH2 0x012d&#10;&#9;00C2    56  *JUMP" style="align=left;strokeColor=none;fillColor=none;spacingLeft=4;fontSize=12;verticalAlign=top;resizable=0;rotatable=0;part=1;fontColor=#330000;" parent="hXesR2zMLgFzcu8kpUQh-105" vertex="1">
                    <mxGeometry y="30" width="180" height="80" as="geometry"/>
                </mxCell>
                <mxCell id="hXesR2zMLgFzcu8kpUQh-107" value="label_00C3" style="swimlane;childLayout=stackLayout;horizontal=1;startSize=30;horizontalStack=0;rounded=1;fontSize=14;fontStyle=0;strokeWidth=2;resizeParent=0;resizeLast=1;shadow=0;dashed=0;align=center;fontColor=#330000;" parent="1" vertex="1">
                    <mxGeometry x="300" y="-18043" width="180" height="130" as="geometry"/>
                </mxCell>
                <mxCell id="hXesR2zMLgFzcu8kpUQh-108" value="&#9;00C3    5B  JUMPDEST&#10;&#9;00C4    90  SWAP1&#10;&#9;00C5    50  POP&#10;&#9;00C6    80  DUP1&#10;&#9;00C7    61  PUSH2 0x00d0&#10;&#9;00CA    57  *JUMPI" style="align=left;strokeColor=none;fillColor=none;spacingLeft=4;fontSize=12;verticalAlign=top;resizable=0;rotatable=0;part=1;fontColor=#330000;" parent="hXesR2zMLgFzcu8kpUQh-107" vertex="1">
                    <mxGeometry y="30" width="180" height="100" as="geometry"/>
                </mxCell>
                <mxCell id="hXesR2zMLgFzcu8kpUQh-253" style="edgeStyle=orthogonalEdgeStyle;curved=1;sketch=0;orthogonalLoop=1;jettySize=auto;html=1;entryX=0.25;entryY=0;entryDx=0;entryDy=0;shadow=0;fontSize=12;fontColor=#330000;startArrow=diamond;startFill=1;strokeColor=#000000;elbow=vertical;exitX=0.5;exitY=1;exitDx=0;exitDy=0;" parent="1" source="hXesR2zMLgFzcu8kpUQh-110" target="hXesR2zMLgFzcu8kpUQh-249" edge="1">
                    <mxGeometry relative="1" as="geometry"/>
                </mxCell>
                <mxCell id="hXesR2zMLgFzcu8kpUQh-109" value="label_00CB" style="swimlane;childLayout=stackLayout;horizontal=1;startSize=30;horizontalStack=0;rounded=1;fontSize=14;fontStyle=0;strokeWidth=2;resizeParent=0;resizeLast=1;shadow=0;dashed=0;align=center;fontColor=#330000;" parent="1" vertex="1">
                    <mxGeometry x="150" y="-17863" width="180" height="90" as="geometry"/>
                </mxCell>
                <mxCell id="hXesR2zMLgFzcu8kpUQh-110" value="&#9;00CB    81  DUP2&#10;&#9;00CC    61  PUSH2 0x00d2&#10;&#9;00CF    56  *JUMP" style="align=left;strokeColor=none;fillColor=none;spacingLeft=4;fontSize=12;verticalAlign=top;resizable=0;rotatable=0;part=1;fontColor=#330000;" parent="hXesR2zMLgFzcu8kpUQh-109" vertex="1">
                    <mxGeometry y="30" width="180" height="60" as="geometry"/>
                </mxCell>
                <mxCell id="hXesR2zMLgFzcu8kpUQh-111" value="label_00D0-1" style="swimlane;childLayout=stackLayout;horizontal=1;startSize=30;horizontalStack=0;rounded=1;fontSize=14;fontStyle=0;strokeWidth=2;resizeParent=0;resizeLast=1;shadow=0;dashed=0;align=center;fontColor=#330000;" parent="1" vertex="1">
                    <mxGeometry x="460" y="-17853" width="180" height="70" as="geometry"/>
                </mxCell>
                <mxCell id="hXesR2zMLgFzcu8kpUQh-112" value="&#9;00D0    5B  JUMPDEST&#10;&#9;00D1    81  DUP2&#10;" style="align=left;strokeColor=none;fillColor=none;spacingLeft=4;fontSize=12;verticalAlign=top;resizable=0;rotatable=0;part=1;fontColor=#330000;" parent="hXesR2zMLgFzcu8kpUQh-111" vertex="1">
                    <mxGeometry y="30" width="180" height="40" as="geometry"/>
                </mxCell>
                <mxCell id="hXesR2zMLgFzcu8kpUQh-113" style="edgeStyle=orthogonalEdgeStyle;orthogonalLoop=1;jettySize=auto;html=1;entryX=0.5;entryY=0;entryDx=0;entryDy=0;fontSize=12;fontColor=#330000;startArrow=diamond;startFill=1;curved=1;exitX=0.75;exitY=1;exitDx=0;exitDy=0;" parent="1" source="hXesR2zMLgFzcu8kpUQh-108" target="hXesR2zMLgFzcu8kpUQh-111" edge="1">
                    <mxGeometry relative="1" as="geometry"/>
                </mxCell>
                <mxCell id="hXesR2zMLgFzcu8kpUQh-114" value="label_0173" style="swimlane;childLayout=stackLayout;horizontal=1;startSize=30;horizontalStack=0;rounded=1;fontSize=14;fontStyle=0;strokeWidth=2;resizeParent=0;resizeLast=1;shadow=0;dashed=0;align=center;fontColor=#330000;" parent="1" vertex="1">
                    <mxGeometry x="-350" y="-17893" width="180" height="240" as="geometry"/>
                </mxCell>
                <mxCell id="hXesR2zMLgFzcu8kpUQh-115" value="&#9;0173    5B  JUMPDEST&#10;&#9;0174    60  PUSH1 0x00&#10;&#9;0176    60  PUSH1 0x20&#10;&#9;0178    82  DUP3&#10;&#9;0179    01  ADD&#10;&#9;017A    90  SWAP1&#10;&#9;017B    50  POP&#10;&#9;017C    61  PUSH2 0x0188&#10;&#9;017F    60  PUSH1 0x00&#10;&#9;0181    83  DUP4&#10;&#9;0182    01  ADD&#10;&#9;0183    84  DUP5&#10;&#9;0184    61  PUSH2 0x0149&#10;&#9;0187    56  *JUMP" style="align=left;strokeColor=none;fillColor=none;spacingLeft=4;fontSize=12;verticalAlign=top;resizable=0;rotatable=0;part=1;fontColor=#330000;" parent="hXesR2zMLgFzcu8kpUQh-114" vertex="1">
                    <mxGeometry y="30" width="180" height="210" as="geometry"/>
                </mxCell>
                <mxCell id="hXesR2zMLgFzcu8kpUQh-119" value="label_0149" style="swimlane;childLayout=stackLayout;horizontal=1;startSize=30;horizontalStack=0;rounded=1;fontSize=14;fontStyle=0;strokeWidth=2;resizeParent=0;resizeLast=1;shadow=0;dashed=0;align=center;fontColor=#330000;" parent="1" vertex="1">
                    <mxGeometry x="-350" y="-17573" width="180" height="120" as="geometry"/>
                </mxCell>
                <mxCell id="hXesR2zMLgFzcu8kpUQh-120" value="&#9;0149    5B  JUMPDEST&#10;&#9;014A    61  PUSH2 0x0152&#10;&#9;014D    81  DUP2&#10;&#9;014E    61  PUSH2 0x019a&#10;&#9;0151    56  *JUMP" style="align=left;strokeColor=none;fillColor=none;spacingLeft=4;fontSize=12;verticalAlign=top;resizable=0;rotatable=0;part=1;fontColor=#330000;" parent="hXesR2zMLgFzcu8kpUQh-119" vertex="1">
                    <mxGeometry y="30" width="180" height="90" as="geometry"/>
                </mxCell>
                <mxCell id="hXesR2zMLgFzcu8kpUQh-152" style="edgeStyle=orthogonalEdgeStyle;rounded=0;orthogonalLoop=1;jettySize=auto;html=1;entryX=0.5;entryY=0;entryDx=0;entryDy=0;fontSize=12;fontColor=#330000;fillColor=#0050ef;strokeColor=#000000;curved=1;dashed=1;startArrow=diamond;startFill=1;" parent="1" source="hXesR2zMLgFzcu8kpUQh-123" target="hXesR2zMLgFzcu8kpUQh-125" edge="1">
                    <mxGeometry relative="1" as="geometry"/>
                </mxCell>
                <mxCell id="hXesR2zMLgFzcu8kpUQh-123" value="label_019A" style="swimlane;childLayout=stackLayout;horizontal=1;startSize=30;horizontalStack=0;rounded=1;fontSize=14;fontStyle=0;strokeWidth=2;resizeParent=0;resizeLast=1;shadow=0;dashed=0;align=center;fontColor=#330000;" parent="1" vertex="1">
                    <mxGeometry x="-350" y="-17371" width="180" height="170" as="geometry"/>
                </mxCell>
                <mxCell id="hXesR2zMLgFzcu8kpUQh-124" value="&#9;019A    5B  JUMPDEST&#10;&#9;019B    60  PUSH1 0x00&#10;&#9;019D    81  DUP2&#10;&#9;019E    90  SWAP1&#10;&#9;019F    50  POP&#10;&#9;01A0    91  SWAP2&#10;&#9;01A1    90  SWAP1&#10;&#9;01A2    50  POP&#10;&#9;01A3    56  *JUMP" style="align=left;strokeColor=none;fillColor=none;spacingLeft=4;fontSize=12;verticalAlign=top;resizable=0;rotatable=0;part=1;fontColor=#330000;" parent="hXesR2zMLgFzcu8kpUQh-123" vertex="1">
                    <mxGeometry y="30" width="180" height="140" as="geometry"/>
                </mxCell>
                <mxCell id="hXesR2zMLgFzcu8kpUQh-125" value="label_0152" style="swimlane;childLayout=stackLayout;horizontal=1;startSize=30;horizontalStack=0;rounded=1;fontSize=14;fontStyle=0;strokeWidth=2;resizeParent=0;resizeLast=1;shadow=0;dashed=0;align=center;fontColor=#330000;arcSize=50;" parent="1" vertex="1">
                    <mxGeometry x="-350" y="-17161" width="180" height="130" as="geometry"/>
                </mxCell>
                <mxCell id="hXesR2zMLgFzcu8kpUQh-126" value="&#9;0152    5B  JUMPDEST&#10;&#9;0153    82  DUP3&#10;&#9;0154    52  MSTORE&#10;&#9;0155    50  POP&#10;&#9;0156    50  POP&#10;&#9;0157    56  *JUMP" style="align=left;strokeColor=none;fillColor=none;spacingLeft=4;fontSize=12;verticalAlign=top;resizable=0;rotatable=0;part=1;fontColor=#330000;" parent="hXesR2zMLgFzcu8kpUQh-125" vertex="1">
                    <mxGeometry y="30" width="180" height="100" as="geometry"/>
                </mxCell>
                <mxCell id="hXesR2zMLgFzcu8kpUQh-130" value="label_0188" style="swimlane;childLayout=stackLayout;horizontal=1;startSize=30;horizontalStack=0;rounded=1;fontSize=14;fontStyle=0;strokeWidth=2;resizeParent=0;resizeLast=1;shadow=0;dashed=0;align=center;fontColor=#330000;arcSize=50;" parent="1" vertex="1">
                    <mxGeometry x="-350" y="-16981" width="180" height="130" as="geometry"/>
                </mxCell>
                <mxCell id="hXesR2zMLgFzcu8kpUQh-131" value="&#9;0188    5B  JUMPDEST&#10;&#9;0189    92  SWAP3&#10;&#9;018A    91  SWAP2&#10;&#9;018B    50  POP&#10;&#9;018C    50  POP&#10;&#9;018D    56  *JUMP" style="align=left;strokeColor=none;fillColor=none;spacingLeft=4;fontSize=12;verticalAlign=top;resizable=0;rotatable=0;part=1;fontColor=#330000;" parent="hXesR2zMLgFzcu8kpUQh-130" vertex="1">
                    <mxGeometry y="30" width="180" height="100" as="geometry"/>
                </mxCell>
                <mxCell id="hXesR2zMLgFzcu8kpUQh-150" style="edgeStyle=orthogonalEdgeStyle;rounded=0;orthogonalLoop=1;jettySize=auto;html=1;entryX=0.5;entryY=0;entryDx=0;entryDy=0;fontSize=12;fontColor=#330000;fillColor=#0050ef;strokeColor=#000000;startArrow=diamond;startFill=1;curved=1;sketch=0;dashed=1;" parent="1" source="hXesR2zMLgFzcu8kpUQh-115" target="hXesR2zMLgFzcu8kpUQh-119" edge="1">
                    <mxGeometry relative="1" as="geometry"/>
                </mxCell>
                <mxCell id="hXesR2zMLgFzcu8kpUQh-151" style="edgeStyle=orthogonalEdgeStyle;rounded=0;orthogonalLoop=1;jettySize=auto;html=1;entryX=0.5;entryY=0;entryDx=0;entryDy=0;fontSize=12;fontColor=#330000;fillColor=#0050ef;strokeColor=#000000;curved=1;dashed=1;startArrow=diamond;startFill=1;exitX=0.5;exitY=1;exitDx=0;exitDy=0;" parent="1" source="hXesR2zMLgFzcu8kpUQh-120" target="hXesR2zMLgFzcu8kpUQh-123" edge="1">
                    <mxGeometry relative="1" as="geometry">
                        <mxPoint x="-260" y="-17411" as="sourcePoint"/>
                    </mxGeometry>
                </mxCell>
                <mxCell id="hXesR2zMLgFzcu8kpUQh-153" style="edgeStyle=orthogonalEdgeStyle;rounded=0;orthogonalLoop=1;jettySize=auto;html=1;entryX=0.5;entryY=0;entryDx=0;entryDy=0;fontSize=12;fontColor=#330000;fillColor=#0050ef;strokeColor=#000000;startArrow=diamond;startFill=1;curved=1;dashed=1;" parent="1" source="hXesR2zMLgFzcu8kpUQh-126" target="hXesR2zMLgFzcu8kpUQh-130" edge="1">
                    <mxGeometry relative="1" as="geometry"/>
                </mxCell>
                <mxCell id="hXesR2zMLgFzcu8kpUQh-156" style="edgeStyle=orthogonalEdgeStyle;rounded=0;orthogonalLoop=1;jettySize=auto;html=1;entryX=0.544;entryY=-0.006;entryDx=0;entryDy=0;entryPerimeter=0;fontSize=12;fontColor=#330000;fillColor=#0050ef;strokeColor=#001DBC;curved=1;startArrow=diamond;startFill=1;exitX=0.25;exitY=1;exitDx=0;exitDy=0;" parent="1" source="hXesR2zMLgFzcu8kpUQh-131" target="hXesR2zMLgFzcu8kpUQh-60" edge="1">
                    <mxGeometry relative="1" as="geometry"/>
                </mxCell>
                <mxCell id="hXesR2zMLgFzcu8kpUQh-159" style="edgeStyle=orthogonalEdgeStyle;curved=1;rounded=0;orthogonalLoop=1;jettySize=auto;html=1;exitX=0.75;exitY=1;exitDx=0;exitDy=0;entryX=0.5;entryY=0;entryDx=0;entryDy=0;fontSize=12;fontColor=#330000;startArrow=diamond;startFill=1;fillColor=#d80073;strokeColor=#A50040;" parent="1" source="hXesR2zMLgFzcu8kpUQh-131" target="hXesR2zMLgFzcu8kpUQh-66" edge="1">
                    <mxGeometry relative="1" as="geometry"/>
                </mxCell>
                <mxCell id="hXesR2zMLgFzcu8kpUQh-163" value="RETURN" style="rhombus;whiteSpace=wrap;html=1;fontSize=12;fontColor=#ffffff;strokeColor=#2D7600;fillColor=#60a917;" parent="1" vertex="1">
                    <mxGeometry x="-130" y="-16451" width="80" height="80" as="geometry"/>
                </mxCell>
                <mxCell id="hXesR2zMLgFzcu8kpUQh-164" style="edgeStyle=orthogonalEdgeStyle;curved=1;rounded=0;sketch=0;orthogonalLoop=1;jettySize=auto;html=1;entryX=0.5;entryY=0;entryDx=0;entryDy=0;fontSize=12;fontColor=#330000;startArrow=diamond;startFill=1;strokeColor=#000000;shadow=0;" parent="1" source="hXesR2zMLgFzcu8kpUQh-67" target="hXesR2zMLgFzcu8kpUQh-163" edge="1">
                    <mxGeometry relative="1" as="geometry"/>
                </mxCell>
                <mxCell id="hXesR2zMLgFzcu8kpUQh-167" style="edgeStyle=orthogonalEdgeStyle;curved=1;sketch=0;orthogonalLoop=1;jettySize=auto;html=1;entryX=0.5;entryY=0;entryDx=0;entryDy=0;shadow=0;fontSize=12;fontColor=#330000;startArrow=diamond;startFill=1;strokeColor=#000000;exitX=0.75;exitY=1;exitDx=0;exitDy=0;" parent="1" source="hXesR2zMLgFzcu8kpUQh-267" target="hXesR2zMLgFzcu8kpUQh-105" edge="1">
                    <mxGeometry relative="1" as="geometry"/>
                </mxCell>
                <mxCell id="hXesR2zMLgFzcu8kpUQh-168" value="label_012D" style="swimlane;childLayout=stackLayout;horizontal=1;startSize=30;horizontalStack=0;rounded=1;fontSize=14;fontStyle=0;strokeWidth=2;resizeParent=0;resizeLast=1;shadow=0;dashed=0;align=center;fontColor=#330000;" parent="1" vertex="1">
                    <mxGeometry x="740" y="-18243" width="180" height="200" as="geometry"/>
                </mxCell>
                <mxCell id="hXesR2zMLgFzcu8kpUQh-169" value="&#9;012D    5B  JUMPDEST&#10;&#9;012E    60  PUSH1 0x00&#10;&#9;0130    60  PUSH1 0x06&#10;&#9;0132    82  DUP3&#10;&#9;0133    11  GT&#10;&#9;0134    90  SWAP1&#10;&#9;0135    50  POP&#10;&#9;0136    91  SWAP2&#10;&#9;0137    90  SWAP1&#10;&#9;0138    50  POP&#10;&#9;0139    56  *JUMP" style="align=left;strokeColor=none;fillColor=none;spacingLeft=4;fontSize=12;verticalAlign=top;resizable=0;rotatable=0;part=1;fontColor=#330000;" parent="hXesR2zMLgFzcu8kpUQh-168" vertex="1">
                    <mxGeometry y="30" width="180" height="170" as="geometry"/>
                </mxCell>
                <mxCell id="hXesR2zMLgFzcu8kpUQh-170" style="edgeStyle=orthogonalEdgeStyle;curved=1;sketch=0;orthogonalLoop=1;jettySize=auto;html=1;entryX=0;entryY=0.25;entryDx=0;entryDy=0;shadow=0;fontSize=12;fontColor=#330000;startArrow=diamond;startFill=1;strokeColor=#2D7600;fillColor=#60a917;exitX=0.5;exitY=1;exitDx=0;exitDy=0;" parent="1" source="hXesR2zMLgFzcu8kpUQh-105" target="hXesR2zMLgFzcu8kpUQh-169" edge="1">
                    <mxGeometry relative="1" as="geometry"/>
                </mxCell>
                <mxCell id="hXesR2zMLgFzcu8kpUQh-172" value="label_01A4" style="swimlane;childLayout=stackLayout;horizontal=1;startSize=30;horizontalStack=0;rounded=1;fontSize=14;fontStyle=0;strokeWidth=2;resizeParent=0;resizeLast=1;shadow=0;dashed=0;align=center;fontColor=#330000;" parent="1" vertex="1">
                    <mxGeometry x="320" y="-17433" width="180" height="130" as="geometry"/>
                </mxCell>
                <mxCell id="hXesR2zMLgFzcu8kpUQh-173" value="&#9;01A4    5B  JUMPDEST&#10;&#9;01A5    60  PUSH1 0x00&#10;&#9;01A7    61  PUSH2 0x01af&#10;&#9;01AA    82  DUP3&#10;&#9;01AB    61  PUSH2 0x019a&#10;&#9;01AE    56  *JUMP" style="align=left;strokeColor=none;fillColor=none;spacingLeft=4;fontSize=12;verticalAlign=top;resizable=0;rotatable=0;part=1;fontColor=#330000;" parent="hXesR2zMLgFzcu8kpUQh-172" vertex="1">
                    <mxGeometry y="30" width="180" height="100" as="geometry"/>
                </mxCell>
                <mxCell id="hXesR2zMLgFzcu8kpUQh-174" style="edgeStyle=orthogonalEdgeStyle;curved=1;sketch=0;orthogonalLoop=1;jettySize=auto;html=1;entryX=0.5;entryY=0;entryDx=0;entryDy=0;shadow=0;fontSize=12;fontColor=#330000;startArrow=diamond;startFill=1;strokeColor=#000000;exitX=0.5;exitY=1;exitDx=0;exitDy=0;" parent="1" source="hXesR2zMLgFzcu8kpUQh-250" target="hXesR2zMLgFzcu8kpUQh-172" edge="1">
                    <mxGeometry relative="1" as="geometry"/>
                </mxCell>
                <mxCell id="hXesR2zMLgFzcu8kpUQh-175" style="edgeStyle=orthogonalEdgeStyle;curved=1;sketch=0;orthogonalLoop=1;jettySize=auto;html=1;entryX=1;entryY=0.5;entryDx=0;entryDy=0;shadow=0;fontSize=12;fontColor=#330000;startArrow=diamond;startFill=1;strokeColor=#C73500;fillColor=#fa6800;" parent="1" source="hXesR2zMLgFzcu8kpUQh-173" target="hXesR2zMLgFzcu8kpUQh-123" edge="1">
                    <mxGeometry relative="1" as="geometry"/>
                </mxCell>
                <mxCell id="hXesR2zMLgFzcu8kpUQh-176" value="label_01AF" style="swimlane;childLayout=stackLayout;horizontal=1;startSize=30;horizontalStack=0;rounded=1;fontSize=14;fontStyle=0;strokeWidth=2;resizeParent=0;resizeLast=1;shadow=0;dashed=0;align=center;fontColor=#330000;" parent="1" vertex="1">
                    <mxGeometry x="250" y="-17243" width="340" height="170" as="geometry"/>
                </mxCell>
                <mxCell id="hXesR2zMLgFzcu8kpUQh-177" value="&#9;01AF    5B  JUMPDEST&#10;&#9;01B0    91  SWAP2&#10;&#9;01B1    50  POP&#10;&#9;01B2    7F  PUSH32 0xffffffffffffffffffffffffffffffffffffffffffffffffffffffffffffffff&#10;&#9;01D3    82  DUP3&#10;&#9;01D4    14  EQ&#10;&#9;01D5    15  ISZERO&#10;&#9;01D6    61  PUSH2 0x01e2&#10;&#9;01D9    57  *JUMPI" style="align=left;strokeColor=none;fillColor=none;spacingLeft=4;fontSize=12;verticalAlign=top;resizable=0;rotatable=0;part=1;fontColor=#330000;" parent="hXesR2zMLgFzcu8kpUQh-176" vertex="1">
                    <mxGeometry y="30" width="340" height="140" as="geometry"/>
                </mxCell>
                <mxCell id="hXesR2zMLgFzcu8kpUQh-178" style="edgeStyle=orthogonalEdgeStyle;curved=1;sketch=0;orthogonalLoop=1;jettySize=auto;html=1;entryX=0;entryY=0.25;entryDx=0;entryDy=0;shadow=0;fontSize=12;fontColor=#330000;startArrow=diamond;startFill=1;strokeColor=#C73500;fillColor=#fa6800;" parent="1" source="hXesR2zMLgFzcu8kpUQh-124" target="hXesR2zMLgFzcu8kpUQh-177" edge="1">
                    <mxGeometry relative="1" as="geometry"/>
                </mxCell>
                <mxCell id="hXesR2zMLgFzcu8kpUQh-179" value="label_01E2" style="swimlane;childLayout=stackLayout;horizontal=1;startSize=30;horizontalStack=0;rounded=1;fontSize=14;fontStyle=0;strokeWidth=2;resizeParent=0;resizeLast=1;shadow=0;dashed=0;align=center;fontColor=#330000;" parent="1" vertex="1">
                    <mxGeometry x="130" y="-16950" width="160" height="190" as="geometry"/>
                </mxCell>
                <mxCell id="hXesR2zMLgFzcu8kpUQh-180" value="&#9;01E2    5B  JUMPDEST&#10;&#9;01E3    60  PUSH1 0x01&#10;&#9;01E5    82  DUP3&#10;&#9;01E6    01  ADD&#10;&#9;01E7    90  SWAP1&#10;&#9;01E8    50  POP&#10;&#9;01E9    91  SWAP2&#10;&#9;01EA    90  SWAP1&#10;&#9;01EB    50  POP&#10;&#9;01EC    56  *JUMP" style="align=left;strokeColor=none;fillColor=none;spacingLeft=4;fontSize=12;verticalAlign=top;resizable=0;rotatable=0;part=1;fontColor=#330000;" parent="hXesR2zMLgFzcu8kpUQh-179" vertex="1">
                    <mxGeometry y="30" width="160" height="160" as="geometry"/>
                </mxCell>
                <mxCell id="hXesR2zMLgFzcu8kpUQh-181" style="edgeStyle=orthogonalEdgeStyle;curved=1;sketch=0;orthogonalLoop=1;jettySize=auto;html=1;entryX=0.5;entryY=0;entryDx=0;entryDy=0;shadow=0;fontSize=12;fontColor=#330000;startArrow=diamond;startFill=1;strokeColor=#000000;exitX=0.25;exitY=1;exitDx=0;exitDy=0;" parent="1" source="hXesR2zMLgFzcu8kpUQh-177" target="hXesR2zMLgFzcu8kpUQh-179" edge="1">
                    <mxGeometry relative="1" as="geometry"/>
                </mxCell>
                <mxCell id="hXesR2zMLgFzcu8kpUQh-188" style="edgeStyle=orthogonalEdgeStyle;curved=1;sketch=0;orthogonalLoop=1;jettySize=auto;html=1;entryX=0.5;entryY=0;entryDx=0;entryDy=0;shadow=0;fontSize=12;fontColor=#330000;startArrow=diamond;startFill=1;strokeColor=#000000;" parent="1" source="hXesR2zMLgFzcu8kpUQh-183" target="hXesR2zMLgFzcu8kpUQh-186" edge="1">
                    <mxGeometry relative="1" as="geometry"/>
                </mxCell>
                <mxCell id="hXesR2zMLgFzcu8kpUQh-183" value="label_01DA" style="swimlane;childLayout=stackLayout;horizontal=1;startSize=30;horizontalStack=0;rounded=1;fontSize=14;fontStyle=0;strokeWidth=2;resizeParent=0;resizeLast=1;shadow=0;dashed=0;align=center;fontColor=#330000;" parent="1" vertex="1">
                    <mxGeometry x="590" y="-16950" width="170" height="80" as="geometry"/>
                </mxCell>
                <mxCell id="hXesR2zMLgFzcu8kpUQh-184" value="&#9;01DA    61  PUSH2 0x01e1&#10;&#9;01DD    61  PUSH2 0x01ed&#10;&#9;01E0    56  *JUMP" style="align=left;strokeColor=none;fillColor=none;spacingLeft=4;fontSize=12;verticalAlign=top;resizable=0;rotatable=0;part=1;fontColor=#330000;" parent="hXesR2zMLgFzcu8kpUQh-183" vertex="1">
                    <mxGeometry y="30" width="170" height="50" as="geometry"/>
                </mxCell>
                <mxCell id="hXesR2zMLgFzcu8kpUQh-185" style="edgeStyle=orthogonalEdgeStyle;curved=1;sketch=0;orthogonalLoop=1;jettySize=auto;html=1;entryX=0.5;entryY=0;entryDx=0;entryDy=0;shadow=0;fontSize=12;fontColor=#330000;startArrow=diamond;startFill=1;strokeColor=#000000;exitX=0.75;exitY=1;exitDx=0;exitDy=0;" parent="1" source="hXesR2zMLgFzcu8kpUQh-177" target="hXesR2zMLgFzcu8kpUQh-183" edge="1">
                    <mxGeometry relative="1" as="geometry"/>
                </mxCell>
                <mxCell id="hXesR2zMLgFzcu8kpUQh-186" value="label_01ED" style="swimlane;childLayout=stackLayout;horizontal=1;startSize=30;horizontalStack=0;rounded=1;fontSize=14;fontStyle=0;strokeWidth=2;resizeParent=0;resizeLast=1;shadow=0;dashed=0;align=center;fontColor=#330000;" parent="1" vertex="1">
                    <mxGeometry x="395" y="-16758" width="565" height="190" as="geometry"/>
                </mxCell>
                <mxCell id="hXesR2zMLgFzcu8kpUQh-187" value="&#9;01ED    5B  JUMPDEST&#10;&#9;01EE    7F  PUSH32 0x4e487b7100000000000000000000000000000000000000000000000000000000&#10;&#9;020F    60  PUSH1 0x00&#10;&#9;0211    52  MSTORE&#10;&#9;0212    60  PUSH1 0x11&#10;&#9;0214    60  PUSH1 0x04&#10;&#9;0216    52  MSTORE&#10;&#9;0217    60  PUSH1 0x24&#10;&#9;0219    60  PUSH1 0x00&#10;&#9;021B    FD  *REVERT" style="align=left;strokeColor=none;fillColor=none;spacingLeft=4;fontSize=12;verticalAlign=top;resizable=0;rotatable=0;part=1;fontColor=#330000;" parent="hXesR2zMLgFzcu8kpUQh-186" vertex="1">
                    <mxGeometry y="30" width="565" height="160" as="geometry"/>
                </mxCell>
                <mxCell id="hXesR2zMLgFzcu8kpUQh-190" value="REVERT" style="rhombus;whiteSpace=wrap;html=1;fontSize=12;fontColor=#ffffff;strokeColor=#6F0000;fillColor=#a20025;" parent="1" vertex="1">
                    <mxGeometry x="637.5" y="-16488" width="80" height="80" as="geometry"/>
                </mxCell>
                <mxCell id="hXesR2zMLgFzcu8kpUQh-191" style="edgeStyle=orthogonalEdgeStyle;curved=1;sketch=0;orthogonalLoop=1;jettySize=auto;html=1;entryX=0.5;entryY=0;entryDx=0;entryDy=0;shadow=0;fontSize=12;fontColor=#330000;startArrow=diamond;startFill=1;strokeColor=#000000;" parent="1" source="hXesR2zMLgFzcu8kpUQh-187" target="hXesR2zMLgFzcu8kpUQh-190" edge="1">
                    <mxGeometry relative="1" as="geometry"/>
                </mxCell>
                <mxCell id="hXesR2zMLgFzcu8kpUQh-192" value="metadata" style="swimlane;childLayout=stackLayout;horizontal=1;startSize=30;horizontalStack=0;rounded=1;fontSize=14;fontStyle=0;strokeWidth=2;resizeParent=0;resizeLast=1;shadow=0;dashed=0;align=center;fontColor=#330000;" parent="1" vertex="1">
                    <mxGeometry x="-310" y="-19910" width="310" height="540" as="geometry"/>
                </mxCell>
                <mxCell id="hXesR2zMLgFzcu8kpUQh-193" value="&#9;021C    FE    *ASSERT&#10;&#9;021D    A2    LOG2&#10;&#9;021E    64    PUSH5 0x6970667358&#10;&#9;0224    22    22&#10;&#9;0225    12    SLT&#10;&#9;0226    20    SHA3&#10;&#9;0227    89    DUP10&#10;&#9;0228    E2    E2&#10;&#9;0229    52    MSTORE&#10;&#9;022A    2D    2D&#10;&#9;022B    AD    AD&#10;&#9;022C    17    OR&#10;&#9;022D    8C    DUP13&#10;&#9;022E    A7    A7&#10;&#9;022F    EC    EC&#10;&#9;0230    9D    SWAP14&#10;&#9;0231    44    DIFFICULTY&#10;&#9;0232    20    SHA3&#10;&#9;0233    00    *STOP&#10;&#9;0234    41    COINBASE&#10;&#9;0235    9C    SWAP13&#10;&#9;0236    D2    D2&#10;&#9;0237    45    GASLIMIT&#10;&#9;0238    91    SWAP2&#10;&#9;0239    A9    A9&#10;&#9;023A    A7    A7&#10;&#9;023B    57    *JUMPI&#10;&#9;023C    B7    B7&#10;&#9;023D    B2    SWAP&#10;&#9;023E    60    PUSH1 0x5a&#10;&#9;0240    9C    SWAP13&#10;&#9;0241    FC    FC&#10;&#9;0242    F1    CALL&#10;&#9;0243    CB    CB&#10;&#9;0244    77    PUSH24 0x52f864736f6c63430008070033" style="align=left;strokeColor=none;fillColor=none;spacingLeft=4;fontSize=12;verticalAlign=top;resizable=0;rotatable=0;part=1;fontColor=#330000;" parent="hXesR2zMLgFzcu8kpUQh-192" vertex="1">
                    <mxGeometry y="30" width="310" height="510" as="geometry"/>
                </mxCell>
                <mxCell id="hXesR2zMLgFzcu8kpUQh-195" value="label_00F5-1" style="swimlane;childLayout=stackLayout;horizontal=1;startSize=30;horizontalStack=0;rounded=1;fontSize=14;fontStyle=0;strokeWidth=2;resizeParent=0;resizeLast=1;shadow=0;dashed=0;align=center;fontColor=#330000;" parent="1" vertex="1">
                    <mxGeometry x="1440" y="-18755" width="190" height="170" as="geometry"/>
                </mxCell>
                <mxCell id="hXesR2zMLgFzcu8kpUQh-196" value="&#9;00F5    5B  JUMPDEST&#10;&#9;00F6    60  PUSH1 0x00&#10;&#9;00F8    64  PUSH5 0x0cef5e80e3&#10;&#9;00FE    60  PUSH1 0x00&#10;&#9;0100    81  DUP2&#10;&#9;0101    90  SWAP1&#10;&#9;0102    55  SSTORE&#10;&#9;0103    50  POP&#10;&#9;0104    60  PUSH1 0x00&#10;" style="align=left;strokeColor=none;fillColor=none;spacingLeft=4;fontSize=12;verticalAlign=top;resizable=0;rotatable=0;part=1;fontColor=#330000;" parent="hXesR2zMLgFzcu8kpUQh-195" vertex="1">
                    <mxGeometry y="30" width="190" height="140" as="geometry"/>
                </mxCell>
                <mxCell id="hXesR2zMLgFzcu8kpUQh-197" style="edgeStyle=orthogonalEdgeStyle;curved=1;sketch=0;orthogonalLoop=1;jettySize=auto;html=1;entryX=0.5;entryY=0;entryDx=0;entryDy=0;shadow=0;fontSize=12;fontColor=#330000;startArrow=diamond;startFill=1;strokeColor=#000000;" parent="1" source="hXesR2zMLgFzcu8kpUQh-69" target="hXesR2zMLgFzcu8kpUQh-195" edge="1">
                    <mxGeometry relative="1" as="geometry"/>
                </mxCell>
                <mxCell id="hXesR2zMLgFzcu8kpUQh-198" style="edgeStyle=orthogonalEdgeStyle;curved=1;sketch=0;orthogonalLoop=1;jettySize=auto;html=1;entryX=0.75;entryY=0;entryDx=0;entryDy=0;shadow=0;fontSize=12;fontColor=#330000;startArrow=diamond;startFill=1;strokeColor=#B09500;fillColor=#e3c800;exitX=0.25;exitY=1;exitDx=0;exitDy=0;" parent="1" source="hXesR2zMLgFzcu8kpUQh-214" target="hXesR2zMLgFzcu8kpUQh-168" edge="1">
                    <mxGeometry relative="1" as="geometry"/>
                </mxCell>
                <mxCell id="hXesR2zMLgFzcu8kpUQh-199" value="label_010F" style="swimlane;childLayout=stackLayout;horizontal=1;startSize=30;horizontalStack=0;rounded=1;fontSize=14;fontStyle=0;strokeWidth=2;resizeParent=0;resizeLast=1;shadow=0;dashed=0;align=center;fontColor=#330000;arcSize=20;" parent="1" vertex="1">
                    <mxGeometry x="1300" y="-18230" width="160" height="90" as="geometry"/>
                </mxCell>
                <mxCell id="hXesR2zMLgFzcu8kpUQh-200" value="&#9;010F    5B  JUMPDEST&#10;&#9;0110    61  PUSH2 0x011e&#10;&#9;0113    57  *JUMPI" style="align=left;strokeColor=none;fillColor=none;spacingLeft=4;fontSize=12;verticalAlign=top;resizable=0;rotatable=0;part=1;fontColor=#330000;" parent="hXesR2zMLgFzcu8kpUQh-199" vertex="1">
                    <mxGeometry y="30" width="160" height="60" as="geometry"/>
                </mxCell>
                <mxCell id="hXesR2zMLgFzcu8kpUQh-201" style="edgeStyle=orthogonalEdgeStyle;curved=1;sketch=0;orthogonalLoop=1;jettySize=auto;html=1;entryX=0;entryY=0.25;entryDx=0;entryDy=0;shadow=0;fontSize=12;fontColor=#330000;startArrow=diamond;startFill=1;strokeColor=#B09500;fillColor=#e3c800;exitX=1;exitY=0;exitDx=0;exitDy=0;" parent="1" source="hXesR2zMLgFzcu8kpUQh-169" target="hXesR2zMLgFzcu8kpUQh-200" edge="1">
                    <mxGeometry relative="1" as="geometry"/>
                </mxCell>
                <mxCell id="hXesR2zMLgFzcu8kpUQh-202" value="label_011E" style="swimlane;childLayout=stackLayout;horizontal=1;startSize=30;horizontalStack=0;rounded=1;fontSize=14;fontStyle=0;strokeWidth=2;resizeParent=0;resizeLast=1;shadow=0;dashed=0;align=center;fontColor=#330000;arcSize=20;" parent="1" vertex="1">
                    <mxGeometry x="1200" y="-18075" width="160" height="110" as="geometry"/>
                </mxCell>
                <mxCell id="hXesR2zMLgFzcu8kpUQh-203" value="&#9;011E    5B  JUMPDEST&#10;&#9;011F    61  PUSH2 0x0127&#10;&#9;0122    81  DUP2&#10;&#9;0123    61  PUSH2 0x012d&#10;&#9;0126    56  *JUMP" style="align=left;strokeColor=none;fillColor=none;spacingLeft=4;fontSize=12;verticalAlign=top;resizable=0;rotatable=0;part=1;fontColor=#330000;" parent="hXesR2zMLgFzcu8kpUQh-202" vertex="1">
                    <mxGeometry y="30" width="160" height="80" as="geometry"/>
                </mxCell>
                <mxCell id="hXesR2zMLgFzcu8kpUQh-204" style="edgeStyle=orthogonalEdgeStyle;curved=1;sketch=0;orthogonalLoop=1;jettySize=auto;html=1;entryX=0.5;entryY=0;entryDx=0;entryDy=0;shadow=0;fontSize=12;fontColor=#330000;startArrow=none;startFill=1;strokeColor=#000000;exitX=0.25;exitY=1;exitDx=0;exitDy=0;" parent="1" source="iPiiUVP0ou0iT72m3FQ5-91" target="hXesR2zMLgFzcu8kpUQh-202" edge="1">
                    <mxGeometry relative="1" as="geometry"/>
                </mxCell>
                <mxCell id="hXesR2zMLgFzcu8kpUQh-205" style="edgeStyle=orthogonalEdgeStyle;curved=1;sketch=0;orthogonalLoop=1;jettySize=auto;html=1;entryX=1;entryY=0.75;entryDx=0;entryDy=0;shadow=0;fontSize=12;fontColor=#330000;startArrow=diamond;startFill=1;strokeColor=#FF00FF;fillColor=#1ba1e2;exitX=0.5;exitY=1;exitDx=0;exitDy=0;" parent="1" source="hXesR2zMLgFzcu8kpUQh-203" target="hXesR2zMLgFzcu8kpUQh-169" edge="1">
                    <mxGeometry relative="1" as="geometry"/>
                </mxCell>
                <mxCell id="hXesR2zMLgFzcu8kpUQh-206" value="label_0127" style="swimlane;childLayout=stackLayout;horizontal=1;startSize=30;horizontalStack=0;rounded=1;fontSize=14;fontStyle=0;strokeWidth=2;resizeParent=0;resizeLast=1;shadow=0;dashed=0;align=center;fontColor=#330000;arcSize=20;" parent="1" vertex="1">
                    <mxGeometry x="1060" y="-17893" width="160" height="130" as="geometry"/>
                </mxCell>
                <mxCell id="hXesR2zMLgFzcu8kpUQh-207" value="&#9;0127    5B  JUMPDEST&#10;&#9;0128    91  SWAP2&#10;&#9;0129    50  POP&#10;&#9;012A    50  POP&#10;&#9;012B    90  SWAP1&#10;&#9;012C    56  *JUMP" style="align=left;strokeColor=none;fillColor=none;spacingLeft=4;fontSize=12;verticalAlign=top;resizable=0;rotatable=0;part=1;fontColor=#330000;" parent="hXesR2zMLgFzcu8kpUQh-206" vertex="1">
                    <mxGeometry y="30" width="160" height="100" as="geometry"/>
                </mxCell>
                <mxCell id="hXesR2zMLgFzcu8kpUQh-209" style="edgeStyle=orthogonalEdgeStyle;curved=1;sketch=0;orthogonalLoop=1;jettySize=auto;html=1;entryX=0.25;entryY=0;entryDx=0;entryDy=0;shadow=0;fontSize=12;fontColor=#330000;startArrow=diamond;startFill=1;strokeColor=#FF00FF;exitX=0.5;exitY=1;exitDx=0;exitDy=0;" parent="1" source="hXesR2zMLgFzcu8kpUQh-169" target="hXesR2zMLgFzcu8kpUQh-206" edge="1">
                    <mxGeometry relative="1" as="geometry"/>
                </mxCell>
                <mxCell id="hXesR2zMLgFzcu8kpUQh-210" value="label_0114" style="swimlane;childLayout=stackLayout;horizontal=1;startSize=30;horizontalStack=0;rounded=1;fontSize=14;fontStyle=0;strokeWidth=2;resizeParent=0;resizeLast=1;shadow=0;dashed=0;align=center;fontColor=#330000;arcSize=20;" parent="1" vertex="1">
                    <mxGeometry x="1410" y="-18075" width="160" height="140" as="geometry"/>
                </mxCell>
                <mxCell id="hXesR2zMLgFzcu8kpUQh-211" value="&#9;0114    80  DUP1&#10;&#9;0115    60  PUSH1 0x01&#10;&#9;0117    01  ADD&#10;&#9;0118    90  SWAP1&#10;&#9;0119    50  POP&#10;&#9;011A    61  PUSH2 0x0106&#10;&#9;011D    56  *JUMP" style="align=left;strokeColor=none;fillColor=none;spacingLeft=4;fontSize=12;verticalAlign=top;resizable=0;rotatable=0;part=1;fontColor=#330000;" parent="hXesR2zMLgFzcu8kpUQh-210" vertex="1">
                    <mxGeometry y="30" width="160" height="110" as="geometry"/>
                </mxCell>
                <mxCell id="hXesR2zMLgFzcu8kpUQh-212" style="edgeStyle=orthogonalEdgeStyle;curved=1;sketch=0;orthogonalLoop=1;jettySize=auto;html=1;entryX=0.5;entryY=0;entryDx=0;entryDy=0;shadow=0;fontSize=12;fontColor=#330000;startArrow=diamond;startFill=1;strokeColor=#000000;exitX=0.75;exitY=1;exitDx=0;exitDy=0;" parent="1" source="hXesR2zMLgFzcu8kpUQh-200" target="hXesR2zMLgFzcu8kpUQh-210" edge="1">
                    <mxGeometry relative="1" as="geometry"/>
                </mxCell>
                <mxCell id="hXesR2zMLgFzcu8kpUQh-213" value="label_00F5-2" style="swimlane;childLayout=stackLayout;horizontal=1;startSize=30;horizontalStack=0;rounded=1;fontSize=14;fontStyle=0;strokeWidth=2;resizeParent=0;resizeLast=1;shadow=0;dashed=0;align=center;fontColor=#330000;" parent="1" vertex="1">
                    <mxGeometry x="1440" y="-18528" width="190" height="110" as="geometry"/>
                </mxCell>
                <mxCell id="hXesR2zMLgFzcu8kpUQh-214" value="0106    5B  JUMPDEST&#10;0107    61  PUSH2 0x010f&#10;010A    81  DUP2&#10;010B    61  PUSH2 0x012d&#10;010E    56  *JUMP" style="align=left;strokeColor=none;fillColor=none;spacingLeft=4;fontSize=12;verticalAlign=top;resizable=0;rotatable=0;part=1;fontColor=#330000;" parent="hXesR2zMLgFzcu8kpUQh-213" vertex="1">
                    <mxGeometry y="30" width="190" height="80" as="geometry"/>
                </mxCell>
                <mxCell id="hXesR2zMLgFzcu8kpUQh-215" style="edgeStyle=orthogonalEdgeStyle;curved=1;sketch=0;orthogonalLoop=1;jettySize=auto;html=1;entryX=0.5;entryY=0;entryDx=0;entryDy=0;shadow=0;fontSize=12;fontColor=#330000;startArrow=diamond;startFill=1;strokeColor=#000000;" parent="1" source="hXesR2zMLgFzcu8kpUQh-196" target="hXesR2zMLgFzcu8kpUQh-213" edge="1">
                    <mxGeometry relative="1" as="geometry"/>
                </mxCell>
                <mxCell id="hXesR2zMLgFzcu8kpUQh-216" style="edgeStyle=orthogonalEdgeStyle;curved=1;sketch=0;orthogonalLoop=1;jettySize=auto;html=1;entryX=1;entryY=0.5;entryDx=0;entryDy=0;shadow=0;fontSize=12;fontColor=#330000;startArrow=diamond;startFill=1;strokeColor=#000000;exitX=0.5;exitY=1;exitDx=0;exitDy=0;" parent="1" source="hXesR2zMLgFzcu8kpUQh-211" target="hXesR2zMLgFzcu8kpUQh-214" edge="1">
                    <mxGeometry relative="1" as="geometry">
                        <mxPoint x="1300" y="-18204" as="sourcePoint"/>
                    </mxGeometry>
                </mxCell>
                <mxCell id="hXesR2zMLgFzcu8kpUQh-230" style="edgeStyle=orthogonalEdgeStyle;curved=1;sketch=0;orthogonalLoop=1;jettySize=auto;html=1;entryX=0.5;entryY=0;entryDx=0;entryDy=0;shadow=0;fontSize=12;fontColor=#330000;startArrow=diamond;startFill=1;strokeColor=#000000;elbow=vertical;" parent="1" source="hXesR2zMLgFzcu8kpUQh-224" target="hXesR2zMLgFzcu8kpUQh-228" edge="1">
                    <mxGeometry relative="1" as="geometry"/>
                </mxCell>
                <mxCell id="hXesR2zMLgFzcu8kpUQh-224" value="label_0158" style="swimlane;childLayout=stackLayout;horizontal=1;startSize=30;horizontalStack=0;rounded=1;fontSize=14;fontStyle=0;strokeWidth=2;resizeParent=0;resizeLast=1;shadow=0;dashed=0;align=center;fontColor=#330000;" parent="1" vertex="1">
                    <mxGeometry x="1050" y="-17493" width="180" height="240" as="geometry"/>
                </mxCell>
                <mxCell id="hXesR2zMLgFzcu8kpUQh-225" value="&#9;0158    5B  JUMPDEST&#10;&#9;0159    60  PUSH1 0x00&#10;&#9;015B    60  PUSH1 0x20&#10;&#9;015D    82  DUP3&#10;&#9;015E    01  ADD&#10;&#9;015F    90  SWAP1&#10;&#9;0160    50  POP&#10;&#9;0161    61  PUSH2 0x016d&#10;&#9;0164    60  PUSH1 0x00&#10;&#9;0166    83  DUP4&#10;&#9;0167    01  ADD&#10;&#9;0168    84  DUP5&#10;&#9;0169    61  PUSH2 0x013a&#10;&#9;016C    56  *JUMP" style="align=left;strokeColor=none;fillColor=none;spacingLeft=4;fontSize=12;verticalAlign=top;resizable=0;rotatable=0;part=1;fontColor=#330000;" parent="hXesR2zMLgFzcu8kpUQh-224" vertex="1">
                    <mxGeometry y="30" width="180" height="210" as="geometry"/>
                </mxCell>
                <mxCell id="hXesR2zMLgFzcu8kpUQh-228" value="label_013A" style="swimlane;childLayout=stackLayout;horizontal=1;startSize=30;horizontalStack=0;rounded=1;fontSize=14;fontStyle=0;strokeWidth=2;resizeParent=0;resizeLast=1;shadow=0;dashed=0;align=center;fontColor=#330000;" parent="1" vertex="1">
                    <mxGeometry x="1050" y="-17201" width="180" height="110" as="geometry"/>
                </mxCell>
                <mxCell id="hXesR2zMLgFzcu8kpUQh-229" value="&#9;013A    5B  JUMPDEST&#10;&#9;013B    61  PUSH2 0x0143&#10;&#9;013E    81  DUP2&#10;&#9;013F    61  PUSH2 0x018e&#10;&#9;0142    56  *JUMP" style="align=left;strokeColor=none;fillColor=none;spacingLeft=4;fontSize=12;verticalAlign=top;resizable=0;rotatable=0;part=1;fontColor=#330000;" parent="hXesR2zMLgFzcu8kpUQh-228" vertex="1">
                    <mxGeometry y="30" width="180" height="80" as="geometry"/>
                </mxCell>
                <mxCell id="hXesR2zMLgFzcu8kpUQh-231" value="label_018E" style="swimlane;childLayout=stackLayout;horizontal=1;startSize=30;horizontalStack=0;rounded=1;fontSize=14;fontStyle=0;strokeWidth=2;resizeParent=0;resizeLast=1;shadow=0;dashed=0;align=center;fontColor=#330000;" parent="1" vertex="1">
                    <mxGeometry x="1050" y="-17040" width="180" height="200" as="geometry"/>
                </mxCell>
                <mxCell id="hXesR2zMLgFzcu8kpUQh-232" value="&#9;018E    5B  JUMPDEST&#10;&#9;018F    60  PUSH1 0x00&#10;&#9;0191    81  DUP2&#10;&#9;0192    15  ISZERO&#10;&#9;0193    15  ISZERO&#10;&#9;0194    90  SWAP1&#10;&#9;0195    50  POP&#10;&#9;0196    91  SWAP2&#10;&#9;0197    90  SWAP1&#10;&#9;0198    50  POP&#10;&#9;0199    56  *JUMP" style="align=left;strokeColor=none;fillColor=none;spacingLeft=4;fontSize=12;verticalAlign=top;resizable=0;rotatable=0;part=1;fontColor=#330000;" parent="hXesR2zMLgFzcu8kpUQh-231" vertex="1">
                    <mxGeometry y="30" width="180" height="170" as="geometry"/>
                </mxCell>
                <mxCell id="hXesR2zMLgFzcu8kpUQh-233" style="edgeStyle=orthogonalEdgeStyle;curved=1;sketch=0;orthogonalLoop=1;jettySize=auto;html=1;entryX=0.5;entryY=0;entryDx=0;entryDy=0;shadow=0;fontSize=12;fontColor=#330000;startArrow=diamond;startFill=1;strokeColor=#000000;elbow=vertical;" parent="1" source="hXesR2zMLgFzcu8kpUQh-229" target="hXesR2zMLgFzcu8kpUQh-231" edge="1">
                    <mxGeometry relative="1" as="geometry"/>
                </mxCell>
                <mxCell id="iPiiUVP0ou0iT72m3FQ5-201" style="edgeStyle=orthogonalEdgeStyle;rounded=0;orthogonalLoop=1;jettySize=auto;html=1;exitX=0.5;exitY=1;exitDx=0;exitDy=0;entryX=0.5;entryY=0;entryDx=0;entryDy=0;" parent="1" source="hXesR2zMLgFzcu8kpUQh-234" target="iPiiUVP0ou0iT72m3FQ5-199" edge="1">
                    <mxGeometry relative="1" as="geometry"/>
                </mxCell>
                <mxCell id="hXesR2zMLgFzcu8kpUQh-234" value="label_0143" style="swimlane;childLayout=stackLayout;horizontal=1;startSize=30;horizontalStack=0;rounded=1;fontSize=14;fontStyle=0;strokeWidth=2;resizeParent=0;resizeLast=1;shadow=0;dashed=0;align=center;fontColor=#330000;" parent="1" vertex="1">
                    <mxGeometry x="1050" y="-16791" width="180" height="130" as="geometry"/>
                </mxCell>
                <mxCell id="hXesR2zMLgFzcu8kpUQh-235" value="&#9;0143    5B  JUMPDEST&#10;&#9;0144    82  DUP3&#10;&#9;0145    52  MSTORE&#10;&#9;0146    50  POP&#10;&#9;0147    50  POP&#10;&#9;0148    56  *JUMP" style="align=left;strokeColor=none;fillColor=none;spacingLeft=4;fontSize=12;verticalAlign=top;resizable=0;rotatable=0;part=1;fontColor=#330000;" parent="hXesR2zMLgFzcu8kpUQh-234" vertex="1">
                    <mxGeometry y="30" width="180" height="100" as="geometry"/>
                </mxCell>
                <mxCell id="hXesR2zMLgFzcu8kpUQh-236" style="edgeStyle=orthogonalEdgeStyle;curved=1;sketch=0;orthogonalLoop=1;jettySize=auto;html=1;entryX=0.5;entryY=0;entryDx=0;entryDy=0;shadow=0;fontSize=12;fontColor=#330000;startArrow=diamond;startFill=1;strokeColor=#000000;elbow=vertical;" parent="1" source="hXesR2zMLgFzcu8kpUQh-232" target="hXesR2zMLgFzcu8kpUQh-234" edge="1">
                    <mxGeometry relative="1" as="geometry"/>
                </mxCell>
                <mxCell id="hXesR2zMLgFzcu8kpUQh-237" value="RETURN" style="rhombus;whiteSpace=wrap;html=1;sketch=0;fontSize=12;fontColor=#ffffff;strokeColor=#2D7600;fillColor=#60a917;" parent="1" vertex="1">
                    <mxGeometry x="1100" y="-16210" width="80" height="80" as="geometry"/>
                </mxCell>
                <mxCell id="hXesR2zMLgFzcu8kpUQh-238" style="edgeStyle=orthogonalEdgeStyle;curved=1;sketch=0;orthogonalLoop=1;jettySize=auto;html=1;entryX=0.5;entryY=0;entryDx=0;entryDy=0;shadow=0;fontSize=12;fontColor=#330000;startArrow=diamond;startFill=1;strokeColor=#000000;elbow=vertical;" parent="1" source="hXesR2zMLgFzcu8kpUQh-86" target="hXesR2zMLgFzcu8kpUQh-237" edge="1">
                    <mxGeometry relative="1" as="geometry"/>
                </mxCell>
                <mxCell id="hXesR2zMLgFzcu8kpUQh-240" style="edgeStyle=orthogonalEdgeStyle;curved=1;sketch=0;orthogonalLoop=1;jettySize=auto;html=1;shadow=0;fontSize=12;fontColor=#330000;startArrow=diamond;startFill=1;strokeColor=#000000;elbow=vertical;entryX=0.5;entryY=0;entryDx=0;entryDy=0;" parent="1" source="hXesR2zMLgFzcu8kpUQh-207" target="hXesR2zMLgFzcu8kpUQh-70" edge="1">
                    <mxGeometry relative="1" as="geometry">
                        <mxPoint x="234.73684210526315" y="-17263" as="targetPoint"/>
                    </mxGeometry>
                </mxCell>
                <mxCell id="hXesR2zMLgFzcu8kpUQh-243" value="REVERT" style="rhombus;whiteSpace=wrap;html=1;fontSize=12;fontColor=#ffffff;strokeColor=#6F0000;fillColor=#a20025;" parent="1" vertex="1">
                    <mxGeometry x="512.5" y="-19487" width="80" height="80" as="geometry"/>
                </mxCell>
                <mxCell id="hXesR2zMLgFzcu8kpUQh-245" style="edgeStyle=orthogonalEdgeStyle;curved=1;sketch=0;orthogonalLoop=1;jettySize=auto;html=1;exitX=0.5;exitY=1;exitDx=0;exitDy=0;entryX=0.5;entryY=0;entryDx=0;entryDy=0;shadow=0;fontSize=12;fontColor=#330000;startArrow=diamond;startFill=1;strokeColor=#000000;elbow=vertical;" parent="1" source="hXesR2zMLgFzcu8kpUQh-44" target="hXesR2zMLgFzcu8kpUQh-243" edge="1">
                    <mxGeometry relative="1" as="geometry"/>
                </mxCell>
                <mxCell id="hXesR2zMLgFzcu8kpUQh-249" value="label_00D0-2" style="swimlane;childLayout=stackLayout;horizontal=1;startSize=30;horizontalStack=0;rounded=1;fontSize=14;fontStyle=0;strokeWidth=2;resizeParent=0;resizeLast=1;shadow=0;dashed=0;align=center;fontColor=#330000;" parent="1" vertex="1">
                    <mxGeometry x="320" y="-17703" width="180" height="230" as="geometry"/>
                </mxCell>
                <mxCell id="hXesR2zMLgFzcu8kpUQh-250" value="00D2    5B  JUMPDEST&#10;00D3    60  PUSH1 0x00&#10;00D5    81  DUP2&#10;00D6    90  SWAP1&#10;00D7    55  SSTORE&#10;00D8    50  POP&#10;00D9    50  POP&#10;00DA    80  DUP1&#10;00DB    80  DUP1&#10;00DC    61  PUSH2 0x00e4&#10;00DF    90  SWAP1&#10;00E0    61  PUSH2 0x01a4&#10;00E3    56  *JUMP" style="align=left;strokeColor=none;fillColor=none;spacingLeft=4;fontSize=12;verticalAlign=top;resizable=0;rotatable=0;part=1;fontColor=#330000;" parent="hXesR2zMLgFzcu8kpUQh-249" vertex="1">
                    <mxGeometry y="30" width="180" height="200" as="geometry"/>
                </mxCell>
                <mxCell id="hXesR2zMLgFzcu8kpUQh-251" style="edgeStyle=orthogonalEdgeStyle;curved=1;sketch=0;orthogonalLoop=1;jettySize=auto;html=1;entryX=0.5;entryY=0;entryDx=0;entryDy=0;shadow=0;fontSize=12;fontColor=#330000;startArrow=diamond;startFill=1;strokeColor=#000000;elbow=vertical;" parent="1" source="hXesR2zMLgFzcu8kpUQh-112" target="hXesR2zMLgFzcu8kpUQh-249" edge="1">
                    <mxGeometry relative="1" as="geometry"/>
                </mxCell>
                <mxCell id="hXesR2zMLgFzcu8kpUQh-254" style="edgeStyle=orthogonalEdgeStyle;curved=1;sketch=0;orthogonalLoop=1;jettySize=auto;html=1;entryX=0.582;entryY=-0.024;entryDx=0;entryDy=0;entryPerimeter=0;shadow=0;fontSize=12;fontColor=#330000;startArrow=diamond;startFill=1;strokeColor=#000000;elbow=vertical;exitX=0.5;exitY=1;exitDx=0;exitDy=0;" parent="1" source="hXesR2zMLgFzcu8kpUQh-108" target="hXesR2zMLgFzcu8kpUQh-109" edge="1">
                    <mxGeometry relative="1" as="geometry">
                        <mxPoint x="416" y="-17773" as="sourcePoint"/>
                    </mxGeometry>
                </mxCell>
                <mxCell id="hXesR2zMLgFzcu8kpUQh-262" style="edgeStyle=orthogonalEdgeStyle;curved=1;sketch=0;orthogonalLoop=1;jettySize=auto;html=1;entryX=0.5;entryY=0;entryDx=0;entryDy=0;shadow=0;fontSize=12;fontColor=#330000;startArrow=diamond;startFill=1;strokeColor=#005700;elbow=vertical;exitX=0;exitY=0.5;exitDx=0;exitDy=0;fillColor=#008a00;" parent="1" source="hXesR2zMLgFzcu8kpUQh-169" target="hXesR2zMLgFzcu8kpUQh-107" edge="1">
                    <mxGeometry relative="1" as="geometry"/>
                </mxCell>
                <mxCell id="hXesR2zMLgFzcu8kpUQh-264" value="label_00E4" style="swimlane;childLayout=stackLayout;horizontal=1;startSize=30;horizontalStack=0;rounded=1;fontSize=14;fontStyle=0;strokeWidth=2;resizeParent=0;resizeLast=1;shadow=0;dashed=0;align=center;fontColor=#330000;" parent="1" vertex="1">
                    <mxGeometry x="130" y="-16728" width="160" height="130" as="geometry"/>
                </mxCell>
                <mxCell id="hXesR2zMLgFzcu8kpUQh-265" value="&#9;00E4    5B  JUMPDEST&#10;&#9;00E5    91  SWAP2&#10;&#9;00E6    50  POP&#10;&#9;00E7    50  POP&#10;&#9;00E8    61  PUSH2 0x00b0&#10;&#9;00EB    56  *JUMP" style="align=left;strokeColor=none;fillColor=none;spacingLeft=4;fontSize=12;verticalAlign=top;resizable=0;rotatable=0;part=1;fontColor=#330000;" parent="hXesR2zMLgFzcu8kpUQh-264" vertex="1">
                    <mxGeometry y="30" width="160" height="100" as="geometry"/>
                </mxCell>
                <mxCell id="hXesR2zMLgFzcu8kpUQh-266" style="edgeStyle=orthogonalEdgeStyle;curved=1;sketch=0;orthogonalLoop=1;jettySize=auto;html=1;entryX=0.5;entryY=0;entryDx=0;entryDy=0;shadow=0;fontSize=12;fontColor=#330000;startArrow=diamond;startFill=1;strokeColor=#000000;elbow=vertical;" parent="1" source="hXesR2zMLgFzcu8kpUQh-180" target="hXesR2zMLgFzcu8kpUQh-264" edge="1">
                    <mxGeometry relative="1" as="geometry"/>
                </mxCell>
                <mxCell id="hXesR2zMLgFzcu8kpUQh-267" value="label_00A6-2" style="swimlane;childLayout=stackLayout;horizontal=1;startSize=30;horizontalStack=0;rounded=1;fontSize=14;fontStyle=0;strokeWidth=2;resizeParent=0;resizeLast=1;shadow=0;dashed=0;align=center;fontColor=#330000;" parent="1" vertex="1">
                    <mxGeometry x="310" y="-18630" width="180" height="143" as="geometry"/>
                </mxCell>
                <mxCell id="hXesR2zMLgFzcu8kpUQh-268" value="00B0    5B  JUMPDEST&#10;00B1    81  DUP2&#10;00B2    81  DUP2&#10;00B3    10  LT&#10;00B4    15  ISZERO&#10;00B5    61  PUSH2 0x00ec&#10;00B8    57  *JUMPI" style="align=left;strokeColor=none;fillColor=none;spacingLeft=4;fontSize=12;verticalAlign=top;resizable=0;rotatable=0;part=1;fontColor=#330000;" parent="hXesR2zMLgFzcu8kpUQh-267" vertex="1">
                    <mxGeometry y="30" width="180" height="113" as="geometry"/>
                </mxCell>
                <mxCell id="hXesR2zMLgFzcu8kpUQh-269" style="edgeStyle=orthogonalEdgeStyle;curved=1;sketch=0;orthogonalLoop=1;jettySize=auto;html=1;entryX=0.5;entryY=0;entryDx=0;entryDy=0;shadow=0;fontSize=12;fontColor=#330000;startArrow=diamond;startFill=1;strokeColor=#000000;elbow=vertical;" parent="1" source="hXesR2zMLgFzcu8kpUQh-90" target="hXesR2zMLgFzcu8kpUQh-267" edge="1">
                    <mxGeometry relative="1" as="geometry"/>
                </mxCell>
                <mxCell id="hXesR2zMLgFzcu8kpUQh-270" style="edgeStyle=orthogonalEdgeStyle;curved=1;sketch=0;orthogonalLoop=1;jettySize=auto;html=1;entryX=0;entryY=0.25;entryDx=0;entryDy=0;shadow=0;fontSize=12;fontColor=#330000;startArrow=diamond;startFill=1;strokeColor=#000000;elbow=vertical;exitX=0;exitY=0.5;exitDx=0;exitDy=0;" parent="1" source="hXesR2zMLgFzcu8kpUQh-265" target="hXesR2zMLgFzcu8kpUQh-268" edge="1">
                    <mxGeometry relative="1" as="geometry">
                        <Array as="points">
                            <mxPoint x="-60" y="-16648"/>
                            <mxPoint x="-60" y="-18572"/>
                        </Array>
                    </mxGeometry>
                </mxCell>
                <mxCell id="hXesR2zMLgFzcu8kpUQh-271" value="label_00EC" style="swimlane;childLayout=stackLayout;horizontal=1;startSize=30;horizontalStack=0;rounded=1;fontSize=14;fontStyle=0;strokeWidth=2;resizeParent=0;resizeLast=1;shadow=0;dashed=0;align=center;fontColor=#330000;" parent="1" vertex="1">
                    <mxGeometry x="70" y="-18370" width="180" height="160" as="geometry"/>
                </mxCell>
                <mxCell id="hXesR2zMLgFzcu8kpUQh-272" value="&#9;00EC    5B  JUMPDEST&#10;&#9;00ED    50  POP&#10;&#9;00EE    60  PUSH1 0x43&#10;&#9;00F0    91  SWAP2&#10;&#9;00F1    50  POP&#10;&#9;00F2    50  POP&#10;&#9;00F3    90  SWAP1&#10;&#9;00F4    56  *JUMP" style="align=left;strokeColor=none;fillColor=none;spacingLeft=4;fontSize=12;verticalAlign=top;resizable=0;rotatable=0;part=1;fontColor=#330000;" parent="hXesR2zMLgFzcu8kpUQh-271" vertex="1">
                    <mxGeometry y="30" width="180" height="130" as="geometry"/>
                </mxCell>
                <mxCell id="hXesR2zMLgFzcu8kpUQh-273" style="edgeStyle=orthogonalEdgeStyle;curved=1;sketch=0;orthogonalLoop=1;jettySize=auto;html=1;entryX=0.5;entryY=0;entryDx=0;entryDy=0;shadow=0;fontSize=12;fontColor=#330000;startArrow=diamond;startFill=1;strokeColor=#000000;elbow=vertical;exitX=0.25;exitY=1;exitDx=0;exitDy=0;" parent="1" source="hXesR2zMLgFzcu8kpUQh-268" target="hXesR2zMLgFzcu8kpUQh-271" edge="1">
                    <mxGeometry relative="1" as="geometry"/>
                </mxCell>
                <mxCell id="hXesR2zMLgFzcu8kpUQh-274" style="edgeStyle=orthogonalEdgeStyle;curved=1;sketch=0;orthogonalLoop=1;jettySize=auto;html=1;entryX=0.5;entryY=0;entryDx=0;entryDy=0;shadow=0;fontSize=12;fontColor=#330000;startArrow=diamond;startFill=1;strokeColor=#000000;elbow=vertical;" parent="1" source="hXesR2zMLgFzcu8kpUQh-272" target="hXesR2zMLgFzcu8kpUQh-64" edge="1">
                    <mxGeometry relative="1" as="geometry"/>
                </mxCell>
                <mxCell id="hXesR2zMLgFzcu8kpUQh-276" style="edgeStyle=orthogonalEdgeStyle;rounded=0;orthogonalLoop=1;jettySize=auto;html=1;entryX=0.5;entryY=0;entryDx=0;entryDy=0;fontSize=12;fontColor=#330000;curved=1;startArrow=diamond;startFill=1;" parent="1" target="hXesR2zMLgFzcu8kpUQh-40" edge="1">
                    <mxGeometry relative="1" as="geometry">
                        <mxPoint x="1100" y="-19970" as="sourcePoint"/>
                        <mxPoint x="1100.0000000000018" y="-19900" as="targetPoint"/>
                    </mxGeometry>
                </mxCell>
                <mxCell id="hXesR2zMLgFzcu8kpUQh-278" value="" style="edgeStyle=orthogonalEdgeStyle;curved=1;sketch=0;orthogonalLoop=1;jettySize=auto;html=1;shadow=0;fontSize=12;fontColor=#330000;startArrow=diamond;startFill=1;strokeColor=#000000;elbow=vertical;exitX=0.5;exitY=1;exitDx=0;exitDy=0;" parent="1" source="hXesR2zMLgFzcu8kpUQh-277" target="hXesR2zMLgFzcu8kpUQh-41" edge="1">
                    <mxGeometry relative="1" as="geometry"/>
                </mxCell>
                <mxCell id="hXesR2zMLgFzcu8kpUQh-277" value="ENTRY" style="shape=offPageConnector;whiteSpace=wrap;html=1;sketch=0;fontSize=12;fontColor=#ffffff;strokeColor=#2D7600;fillColor=#60a917;" parent="1" vertex="1">
                    <mxGeometry x="1060" y="-20010" width="80" height="80" as="geometry"/>
                </mxCell>
                <mxCell id="hXesR2zMLgFzcu8kpUQh-279" value="a()" style="ellipse;shape=cloud;whiteSpace=wrap;html=1;sketch=0;fontSize=12;fontColor=#ffffff;strokeColor=#A50040;fillColor=#d80073;" parent="1" vertex="1">
                    <mxGeometry x="-390" y="-19043" width="120" height="80" as="geometry"/>
                </mxCell>
                <mxCell id="hXesR2zMLgFzcu8kpUQh-280" value="f()" style="ellipse;shape=cloud;whiteSpace=wrap;html=1;sketch=0;fontSize=12;fontColor=#ffffff;strokeColor=#A50040;fillColor=#d80073;" parent="1" vertex="1">
                    <mxGeometry x="310" y="-19050" width="120" height="80" as="geometry"/>
                </mxCell>
                <mxCell id="hXesR2zMLgFzcu8kpUQh-281" value="g()" style="ellipse;shape=cloud;whiteSpace=wrap;html=1;sketch=0;fontSize=12;fontColor=#ffffff;strokeColor=#A50040;fillColor=#d80073;" parent="1" vertex="1">
                    <mxGeometry x="1460" y="-19043" width="120" height="80" as="geometry"/>
                </mxCell>
                <mxCell id="hXesR2zMLgFzcu8kpUQh-282" value="if &lt;br&gt;msg.value&lt;br&gt;&amp;nbsp;&amp;gt; 0" style="ellipse;shape=cloud;whiteSpace=wrap;html=1;sketch=0;fontSize=12;fontColor=#ffffff;strokeColor=#A50040;fillColor=#d80073;" parent="1" vertex="1">
                    <mxGeometry x="790" y="-19760" width="120" height="80" as="geometry"/>
                </mxCell>
                <mxCell id="hXesR2zMLgFzcu8kpUQh-283" value="if &lt;br&gt;msg.data.length&lt;br&gt;&amp;nbsp;&amp;lt; 4&amp;nbsp;&lt;br&gt;(no selector)" style="ellipse;shape=cloud;whiteSpace=wrap;html=1;sketch=0;fontSize=12;fontColor=#ffffff;strokeColor=#A50040;fillColor=#d80073;" parent="1" vertex="1">
                    <mxGeometry x="1270" y="-19530" width="120" height="80" as="geometry"/>
                </mxCell>
                <mxCell id="hXesR2zMLgFzcu8kpUQh-284" value="unmatched&lt;br&gt;selector" style="ellipse;shape=cloud;whiteSpace=wrap;html=1;sketch=0;fontSize=12;fontColor=#ffffff;strokeColor=#A50040;fillColor=#d80073;" parent="1" vertex="1">
                    <mxGeometry x="1090" y="-18923" width="120" height="80" as="geometry"/>
                </mxCell>
                <mxCell id="iPiiUVP0ou0iT72m3FQ5-3" value="55555555555" style="shape=display;whiteSpace=wrap;html=1;fillColor=#d80073;fontColor=#ffffff;strokeColor=#A50040;" parent="1" vertex="1">
                    <mxGeometry x="1630" y="-18700" width="100" height="40" as="geometry"/>
                </mxCell>
                <mxCell id="iPiiUVP0ou0iT72m3FQ5-13" value="stack" style="swimlane;fontStyle=0;childLayout=stackLayout;horizontal=1;startSize=30;horizontalStack=0;resizeParent=1;resizeParentMax=0;resizeLast=0;collapsible=1;marginBottom=0;fillColor=#d80073;fontColor=#ffffff;strokeColor=#A50040;" parent="1" vertex="1" collapsed="1">
                    <mxGeometry x="1450" y="-18805" width="60" height="30" as="geometry">
                        <mxRectangle x="1450" y="-18805" width="80" height="90" as="alternateBounds"/>
                    </mxGeometry>
                </mxCell>
                <mxCell id="iPiiUVP0ou0iT72m3FQ5-14" value="0x008a" style="text;strokeColor=#A50040;fillColor=#d80073;align=left;verticalAlign=middle;spacingLeft=4;spacingRight=4;overflow=hidden;points=[[0,0.5],[1,0.5]];portConstraint=eastwest;rotatable=0;fontColor=#ffffff;" parent="iPiiUVP0ou0iT72m3FQ5-13" vertex="1">
                    <mxGeometry y="30" width="80" height="30" as="geometry"/>
                </mxCell>
                <mxCell id="iPiiUVP0ou0iT72m3FQ5-118" value="0xe2179b8e" style="text;strokeColor=#A50040;fillColor=#d80073;align=left;verticalAlign=middle;spacingLeft=4;spacingRight=4;overflow=hidden;points=[[0,0.5],[1,0.5]];portConstraint=eastwest;rotatable=0;fontColor=#ffffff;" parent="iPiiUVP0ou0iT72m3FQ5-13" vertex="1">
                    <mxGeometry y="60" width="80" height="30" as="geometry"/>
                </mxCell>
                <mxCell id="iPiiUVP0ou0iT72m3FQ5-17" value="stack" style="swimlane;fontStyle=0;childLayout=stackLayout;horizontal=1;startSize=30;horizontalStack=0;resizeParent=1;resizeParentMax=0;resizeLast=0;collapsible=1;marginBottom=0;fillColor=#d80073;fontColor=#ffffff;strokeColor=#A50040;" parent="1" vertex="1" collapsed="1">
                    <mxGeometry x="1550" y="-18573.5" width="60" height="30" as="geometry">
                        <mxRectangle x="1550" y="-18573.5" width="90" height="150" as="alternateBounds"/>
                    </mxGeometry>
                </mxCell>
                <mxCell id="iPiiUVP0ou0iT72m3FQ5-33" value="0x00" style="text;strokeColor=#A50040;fillColor=#d80073;align=left;verticalAlign=middle;spacingLeft=4;spacingRight=4;overflow=hidden;points=[[0,0.5],[1,0.5]];portConstraint=eastwest;rotatable=0;fontColor=#ffffff;" parent="iPiiUVP0ou0iT72m3FQ5-17" vertex="1">
                    <mxGeometry y="30" width="90" height="30" as="geometry"/>
                </mxCell>
                <mxCell id="iPiiUVP0ou0iT72m3FQ5-19" value="0x00" style="text;strokeColor=#A50040;fillColor=#d80073;align=left;verticalAlign=middle;spacingLeft=4;spacingRight=4;overflow=hidden;points=[[0,0.5],[1,0.5]];portConstraint=eastwest;rotatable=0;fontColor=#ffffff;" parent="iPiiUVP0ou0iT72m3FQ5-17" vertex="1">
                    <mxGeometry y="60" width="90" height="30" as="geometry"/>
                </mxCell>
                <mxCell id="iPiiUVP0ou0iT72m3FQ5-18" value="0x008a" style="text;strokeColor=#A50040;fillColor=#d80073;align=left;verticalAlign=middle;spacingLeft=4;spacingRight=4;overflow=hidden;points=[[0,0.5],[1,0.5]];portConstraint=eastwest;rotatable=0;fontColor=#ffffff;" parent="iPiiUVP0ou0iT72m3FQ5-17" vertex="1">
                    <mxGeometry y="90" width="90" height="30" as="geometry"/>
                </mxCell>
                <mxCell id="iPiiUVP0ou0iT72m3FQ5-124" value="0xe2179b8e" style="text;strokeColor=#A50040;fillColor=#d80073;align=left;verticalAlign=middle;spacingLeft=4;spacingRight=4;overflow=hidden;points=[[0,0.5],[1,0.5]];portConstraint=eastwest;rotatable=0;fontColor=#ffffff;" parent="iPiiUVP0ou0iT72m3FQ5-17" vertex="1">
                    <mxGeometry y="120" width="90" height="30" as="geometry"/>
                </mxCell>
                <mxCell id="iPiiUVP0ou0iT72m3FQ5-34" value="a = 55555555555&lt;br&gt;&amp;amp; return de a unused" style="ellipse;shape=cloud;whiteSpace=wrap;html=1;sketch=0;fontSize=12;fontColor=#ffffff;strokeColor=#A50040;fillColor=#d80073;" parent="1" vertex="1">
                    <mxGeometry x="1600" y="-18800" width="170" height="80" as="geometry"/>
                </mxCell>
                <mxCell id="iPiiUVP0ou0iT72m3FQ5-35" value="stack" style="swimlane;fontStyle=0;childLayout=stackLayout;horizontal=1;startSize=30;horizontalStack=0;resizeParent=1;resizeParentMax=0;resizeLast=0;collapsible=1;marginBottom=0;fillColor=#d80073;fontColor=#ffffff;strokeColor=#A50040;" parent="1" vertex="1" collapsed="1">
                    <mxGeometry x="1380" y="-18393" width="60" height="30" as="geometry">
                        <mxRectangle x="1380" y="-18393" width="90" height="210" as="alternateBounds"/>
                    </mxGeometry>
                </mxCell>
                <mxCell id="iPiiUVP0ou0iT72m3FQ5-41" value="i" style="text;strokeColor=#A50040;fillColor=#d80073;align=left;verticalAlign=middle;spacingLeft=4;spacingRight=4;overflow=hidden;points=[[0,0.5],[1,0.5]];portConstraint=eastwest;rotatable=0;fontColor=#ffffff;" parent="iPiiUVP0ou0iT72m3FQ5-35" vertex="1">
                    <mxGeometry y="30" width="90" height="30" as="geometry"/>
                </mxCell>
                <mxCell id="iPiiUVP0ou0iT72m3FQ5-39" value="0x010f" style="text;strokeColor=#A50040;fillColor=#d80073;align=left;verticalAlign=middle;spacingLeft=4;spacingRight=4;overflow=hidden;points=[[0,0.5],[1,0.5]];portConstraint=eastwest;rotatable=0;fontColor=#ffffff;" parent="iPiiUVP0ou0iT72m3FQ5-35" vertex="1">
                    <mxGeometry y="60" width="90" height="30" as="geometry"/>
                </mxCell>
                <mxCell id="iPiiUVP0ou0iT72m3FQ5-36" value="i" style="text;strokeColor=#A50040;fillColor=#d80073;align=left;verticalAlign=middle;spacingLeft=4;spacingRight=4;overflow=hidden;points=[[0,0.5],[1,0.5]];portConstraint=eastwest;rotatable=0;fontColor=#ffffff;" parent="iPiiUVP0ou0iT72m3FQ5-35" vertex="1">
                    <mxGeometry y="90" width="90" height="30" as="geometry"/>
                </mxCell>
                <mxCell id="iPiiUVP0ou0iT72m3FQ5-37" value="0x00" style="text;strokeColor=#A50040;fillColor=#d80073;align=left;verticalAlign=middle;spacingLeft=4;spacingRight=4;overflow=hidden;points=[[0,0.5],[1,0.5]];portConstraint=eastwest;rotatable=0;fontColor=#ffffff;" parent="iPiiUVP0ou0iT72m3FQ5-35" vertex="1">
                    <mxGeometry y="120" width="90" height="30" as="geometry"/>
                </mxCell>
                <mxCell id="iPiiUVP0ou0iT72m3FQ5-38" value="0x008a" style="text;strokeColor=#A50040;fillColor=#d80073;align=left;verticalAlign=middle;spacingLeft=4;spacingRight=4;overflow=hidden;points=[[0,0.5],[1,0.5]];portConstraint=eastwest;rotatable=0;fontColor=#ffffff;" parent="iPiiUVP0ou0iT72m3FQ5-35" vertex="1">
                    <mxGeometry y="150" width="90" height="30" as="geometry"/>
                </mxCell>
                <mxCell id="iPiiUVP0ou0iT72m3FQ5-125" value="0xe2179b8e" style="text;strokeColor=#A50040;fillColor=#d80073;align=left;verticalAlign=middle;spacingLeft=4;spacingRight=4;overflow=hidden;points=[[0,0.5],[1,0.5]];portConstraint=eastwest;rotatable=0;fontColor=#ffffff;" parent="iPiiUVP0ou0iT72m3FQ5-35" vertex="1">
                    <mxGeometry y="180" width="90" height="30" as="geometry"/>
                </mxCell>
                <mxCell id="iPiiUVP0ou0iT72m3FQ5-42" value="stack" style="swimlane;fontStyle=0;childLayout=stackLayout;horizontal=1;startSize=30;horizontalStack=0;resizeParent=1;resizeParentMax=0;resizeLast=0;collapsible=1;marginBottom=0;fillColor=#d80073;fontColor=#ffffff;strokeColor=#A50040;" parent="1" vertex="1" collapsed="1">
                    <mxGeometry x="970" y="-18270" width="60" height="30" as="geometry">
                        <mxRectangle x="970" y="-18270" width="90" height="180" as="alternateBounds"/>
                    </mxGeometry>
                </mxCell>
                <mxCell id="iPiiUVP0ou0iT72m3FQ5-43" value="i &gt; 6" style="text;strokeColor=#A50040;fillColor=#d80073;align=left;verticalAlign=middle;spacingLeft=4;spacingRight=4;overflow=hidden;points=[[0,0.5],[1,0.5]];portConstraint=eastwest;rotatable=0;fontColor=#ffffff;" parent="iPiiUVP0ou0iT72m3FQ5-42" vertex="1">
                    <mxGeometry y="30" width="90" height="30" as="geometry"/>
                </mxCell>
                <mxCell id="iPiiUVP0ou0iT72m3FQ5-45" value="i" style="text;strokeColor=#A50040;fillColor=#d80073;align=left;verticalAlign=middle;spacingLeft=4;spacingRight=4;overflow=hidden;points=[[0,0.5],[1,0.5]];portConstraint=eastwest;rotatable=0;fontColor=#ffffff;" parent="iPiiUVP0ou0iT72m3FQ5-42" vertex="1">
                    <mxGeometry y="60" width="90" height="30" as="geometry"/>
                </mxCell>
                <mxCell id="iPiiUVP0ou0iT72m3FQ5-46" value="0x00" style="text;strokeColor=#A50040;fillColor=#d80073;align=left;verticalAlign=middle;spacingLeft=4;spacingRight=4;overflow=hidden;points=[[0,0.5],[1,0.5]];portConstraint=eastwest;rotatable=0;fontColor=#ffffff;" parent="iPiiUVP0ou0iT72m3FQ5-42" vertex="1">
                    <mxGeometry y="90" width="90" height="30" as="geometry"/>
                </mxCell>
                <mxCell id="iPiiUVP0ou0iT72m3FQ5-47" value="0x008a" style="text;strokeColor=#A50040;fillColor=#d80073;align=left;verticalAlign=middle;spacingLeft=4;spacingRight=4;overflow=hidden;points=[[0,0.5],[1,0.5]];portConstraint=eastwest;rotatable=0;fontColor=#ffffff;" parent="iPiiUVP0ou0iT72m3FQ5-42" vertex="1">
                    <mxGeometry y="120" width="90" height="30" as="geometry"/>
                </mxCell>
                <mxCell id="iPiiUVP0ou0iT72m3FQ5-126" value="0xe2179b8e" style="text;strokeColor=#A50040;fillColor=#d80073;align=left;verticalAlign=middle;spacingLeft=4;spacingRight=4;overflow=hidden;points=[[0,0.5],[1,0.5]];portConstraint=eastwest;rotatable=0;fontColor=#ffffff;" parent="iPiiUVP0ou0iT72m3FQ5-42" vertex="1">
                    <mxGeometry y="150" width="90" height="30" as="geometry"/>
                </mxCell>
                <mxCell id="iPiiUVP0ou0iT72m3FQ5-58" value="stack" style="swimlane;fontStyle=0;childLayout=stackLayout;horizontal=1;startSize=30;horizontalStack=0;resizeParent=1;resizeParentMax=0;resizeLast=0;collapsible=1;marginBottom=0;fillColor=#d80073;fontColor=#ffffff;strokeColor=#A50040;" parent="1" vertex="1" collapsed="1">
                    <mxGeometry x="1445" y="-18130" width="60" height="30" as="geometry">
                        <mxRectangle x="1445" y="-18130" width="90" height="150" as="alternateBounds"/>
                    </mxGeometry>
                </mxCell>
                <mxCell id="iPiiUVP0ou0iT72m3FQ5-60" value="i" style="text;strokeColor=#A50040;fillColor=#d80073;align=left;verticalAlign=middle;spacingLeft=4;spacingRight=4;overflow=hidden;points=[[0,0.5],[1,0.5]];portConstraint=eastwest;rotatable=0;fontColor=#ffffff;" parent="iPiiUVP0ou0iT72m3FQ5-58" vertex="1">
                    <mxGeometry y="30" width="90" height="30" as="geometry"/>
                </mxCell>
                <mxCell id="iPiiUVP0ou0iT72m3FQ5-61" value="0x00" style="text;strokeColor=#A50040;fillColor=#d80073;align=left;verticalAlign=middle;spacingLeft=4;spacingRight=4;overflow=hidden;points=[[0,0.5],[1,0.5]];portConstraint=eastwest;rotatable=0;fontColor=#ffffff;" parent="iPiiUVP0ou0iT72m3FQ5-58" vertex="1">
                    <mxGeometry y="60" width="90" height="30" as="geometry"/>
                </mxCell>
                <mxCell id="iPiiUVP0ou0iT72m3FQ5-62" value="0x008a" style="text;strokeColor=#A50040;fillColor=#d80073;align=left;verticalAlign=middle;spacingLeft=4;spacingRight=4;overflow=hidden;points=[[0,0.5],[1,0.5]];portConstraint=eastwest;rotatable=0;fontColor=#ffffff;" parent="iPiiUVP0ou0iT72m3FQ5-58" vertex="1">
                    <mxGeometry y="90" width="90" height="30" as="geometry"/>
                </mxCell>
                <mxCell id="iPiiUVP0ou0iT72m3FQ5-122" value="0xe2179b8e" style="text;strokeColor=#A50040;fillColor=#d80073;align=left;verticalAlign=middle;spacingLeft=4;spacingRight=4;overflow=hidden;points=[[0,0.5],[1,0.5]];portConstraint=eastwest;rotatable=0;fontColor=#ffffff;" parent="iPiiUVP0ou0iT72m3FQ5-58" vertex="1">
                    <mxGeometry y="120" width="90" height="30" as="geometry"/>
                </mxCell>
                <mxCell id="iPiiUVP0ou0iT72m3FQ5-70" value="stack" style="swimlane;fontStyle=0;childLayout=stackLayout;horizontal=1;startSize=30;horizontalStack=0;resizeParent=1;resizeParentMax=0;resizeLast=0;collapsible=1;marginBottom=0;fillColor=#d80073;fontColor=#ffffff;strokeColor=#A50040;" parent="1" vertex="1" collapsed="1">
                    <mxGeometry x="1600" y="-17980" width="60" height="30" as="geometry">
                        <mxRectangle x="1600" y="-17980" width="90" height="150" as="alternateBounds"/>
                    </mxGeometry>
                </mxCell>
                <mxCell id="iPiiUVP0ou0iT72m3FQ5-74" value="i+1" style="text;strokeColor=#A50040;fillColor=#d80073;align=left;verticalAlign=middle;spacingLeft=4;spacingRight=4;overflow=hidden;points=[[0,0.5],[1,0.5]];portConstraint=eastwest;rotatable=0;fontColor=#ffffff;" parent="iPiiUVP0ou0iT72m3FQ5-70" vertex="1">
                    <mxGeometry y="30" width="90" height="30" as="geometry"/>
                </mxCell>
                <mxCell id="iPiiUVP0ou0iT72m3FQ5-72" value="0x00" style="text;strokeColor=#A50040;fillColor=#d80073;align=left;verticalAlign=middle;spacingLeft=4;spacingRight=4;overflow=hidden;points=[[0,0.5],[1,0.5]];portConstraint=eastwest;rotatable=0;fontColor=#ffffff;" parent="iPiiUVP0ou0iT72m3FQ5-70" vertex="1">
                    <mxGeometry y="60" width="90" height="30" as="geometry"/>
                </mxCell>
                <mxCell id="iPiiUVP0ou0iT72m3FQ5-73" value="0x008a" style="text;strokeColor=#A50040;fillColor=#d80073;align=left;verticalAlign=middle;spacingLeft=4;spacingRight=4;overflow=hidden;points=[[0,0.5],[1,0.5]];portConstraint=eastwest;rotatable=0;fontColor=#ffffff;" parent="iPiiUVP0ou0iT72m3FQ5-70" vertex="1">
                    <mxGeometry y="90" width="90" height="30" as="geometry"/>
                </mxCell>
                <mxCell id="iPiiUVP0ou0iT72m3FQ5-120" value="0xe2179b8e" style="text;strokeColor=#A50040;fillColor=#d80073;align=left;verticalAlign=middle;spacingLeft=4;spacingRight=4;overflow=hidden;points=[[0,0.5],[1,0.5]];portConstraint=eastwest;rotatable=0;fontColor=#ffffff;" parent="iPiiUVP0ou0iT72m3FQ5-70" vertex="1">
                    <mxGeometry y="120" width="90" height="30" as="geometry"/>
                </mxCell>
                <mxCell id="iPiiUVP0ou0iT72m3FQ5-91" value="stack" style="swimlane;fontStyle=0;childLayout=stackLayout;horizontal=1;startSize=30;horizontalStack=0;resizeParent=1;resizeParentMax=0;resizeLast=0;collapsible=1;marginBottom=0;fillColor=#d80073;fontColor=#ffffff;strokeColor=#A50040;" parent="1" vertex="1" collapsed="1">
                    <mxGeometry x="1260" y="-18120" width="60" height="30" as="geometry">
                        <mxRectangle x="1260" y="-18120" width="90" height="150" as="alternateBounds"/>
                    </mxGeometry>
                </mxCell>
                <mxCell id="iPiiUVP0ou0iT72m3FQ5-92" value="i" style="text;strokeColor=#A50040;fillColor=#d80073;align=left;verticalAlign=middle;spacingLeft=4;spacingRight=4;overflow=hidden;points=[[0,0.5],[1,0.5]];portConstraint=eastwest;rotatable=0;fontColor=#ffffff;" parent="iPiiUVP0ou0iT72m3FQ5-91" vertex="1">
                    <mxGeometry y="30" width="90" height="30" as="geometry"/>
                </mxCell>
                <mxCell id="iPiiUVP0ou0iT72m3FQ5-93" value="0x00" style="text;strokeColor=#A50040;fillColor=#d80073;align=left;verticalAlign=middle;spacingLeft=4;spacingRight=4;overflow=hidden;points=[[0,0.5],[1,0.5]];portConstraint=eastwest;rotatable=0;fontColor=#ffffff;" parent="iPiiUVP0ou0iT72m3FQ5-91" vertex="1">
                    <mxGeometry y="60" width="90" height="30" as="geometry"/>
                </mxCell>
                <mxCell id="iPiiUVP0ou0iT72m3FQ5-94" value="0x008a" style="text;strokeColor=#A50040;fillColor=#d80073;align=left;verticalAlign=middle;spacingLeft=4;spacingRight=4;overflow=hidden;points=[[0,0.5],[1,0.5]];portConstraint=eastwest;rotatable=0;fontColor=#ffffff;" parent="iPiiUVP0ou0iT72m3FQ5-91" vertex="1">
                    <mxGeometry y="90" width="90" height="30" as="geometry"/>
                </mxCell>
                <mxCell id="iPiiUVP0ou0iT72m3FQ5-123" value="0xe2179b8e" style="text;strokeColor=#A50040;fillColor=#d80073;align=left;verticalAlign=middle;spacingLeft=4;spacingRight=4;overflow=hidden;points=[[0,0.5],[1,0.5]];portConstraint=eastwest;rotatable=0;fontColor=#ffffff;" parent="iPiiUVP0ou0iT72m3FQ5-91" vertex="1">
                    <mxGeometry y="120" width="90" height="30" as="geometry"/>
                </mxCell>
                <mxCell id="iPiiUVP0ou0iT72m3FQ5-95" value="" style="edgeStyle=orthogonalEdgeStyle;curved=1;sketch=0;orthogonalLoop=1;jettySize=auto;html=1;entryX=0.5;entryY=0;entryDx=0;entryDy=0;shadow=0;fontSize=12;fontColor=#330000;startArrow=diamond;startFill=1;strokeColor=#000000;exitX=0.25;exitY=1;exitDx=0;exitDy=0;endArrow=none;" parent="1" source="hXesR2zMLgFzcu8kpUQh-200" target="iPiiUVP0ou0iT72m3FQ5-91" edge="1">
                    <mxGeometry relative="1" as="geometry">
                        <mxPoint x="1340" y="-18140" as="sourcePoint"/>
                        <mxPoint x="1280" y="-18075" as="targetPoint"/>
                    </mxGeometry>
                </mxCell>
                <mxCell id="iPiiUVP0ou0iT72m3FQ5-96" value="stack" style="swimlane;fontStyle=0;childLayout=stackLayout;horizontal=1;startSize=30;horizontalStack=0;resizeParent=1;resizeParentMax=0;resizeLast=0;collapsible=1;marginBottom=0;fillColor=#d80073;fontColor=#ffffff;strokeColor=#A50040;" parent="1" vertex="1" collapsed="1">
                    <mxGeometry x="1095" y="-17980" width="60" height="30" as="geometry">
                        <mxRectangle x="1095" y="-17980" width="90" height="210" as="alternateBounds"/>
                    </mxGeometry>
                </mxCell>
                <mxCell id="iPiiUVP0ou0iT72m3FQ5-101" value="i" style="text;strokeColor=#A50040;fillColor=#d80073;align=left;verticalAlign=middle;spacingLeft=4;spacingRight=4;overflow=hidden;points=[[0,0.5],[1,0.5]];portConstraint=eastwest;rotatable=0;fontColor=#ffffff;" parent="iPiiUVP0ou0iT72m3FQ5-96" vertex="1">
                    <mxGeometry y="30" width="90" height="30" as="geometry"/>
                </mxCell>
                <mxCell id="iPiiUVP0ou0iT72m3FQ5-100" value="0x0127" style="text;strokeColor=#A50040;fillColor=#d80073;align=left;verticalAlign=middle;spacingLeft=4;spacingRight=4;overflow=hidden;points=[[0,0.5],[1,0.5]];portConstraint=eastwest;rotatable=0;fontColor=#ffffff;" parent="iPiiUVP0ou0iT72m3FQ5-96" vertex="1">
                    <mxGeometry y="60" width="90" height="30" as="geometry"/>
                </mxCell>
                <mxCell id="iPiiUVP0ou0iT72m3FQ5-97" value="i" style="text;strokeColor=#A50040;fillColor=#d80073;align=left;verticalAlign=middle;spacingLeft=4;spacingRight=4;overflow=hidden;points=[[0,0.5],[1,0.5]];portConstraint=eastwest;rotatable=0;fontColor=#ffffff;" parent="iPiiUVP0ou0iT72m3FQ5-96" vertex="1">
                    <mxGeometry y="90" width="90" height="30" as="geometry"/>
                </mxCell>
                <mxCell id="iPiiUVP0ou0iT72m3FQ5-98" value="0x00" style="text;strokeColor=#A50040;fillColor=#d80073;align=left;verticalAlign=middle;spacingLeft=4;spacingRight=4;overflow=hidden;points=[[0,0.5],[1,0.5]];portConstraint=eastwest;rotatable=0;fontColor=#ffffff;" parent="iPiiUVP0ou0iT72m3FQ5-96" vertex="1">
                    <mxGeometry y="120" width="90" height="30" as="geometry"/>
                </mxCell>
                <mxCell id="iPiiUVP0ou0iT72m3FQ5-99" value="0x008a" style="text;strokeColor=#A50040;fillColor=#d80073;align=left;verticalAlign=middle;spacingLeft=4;spacingRight=4;overflow=hidden;points=[[0,0.5],[1,0.5]];portConstraint=eastwest;rotatable=0;fontColor=#ffffff;" parent="iPiiUVP0ou0iT72m3FQ5-96" vertex="1">
                    <mxGeometry y="150" width="90" height="30" as="geometry"/>
                </mxCell>
                <mxCell id="iPiiUVP0ou0iT72m3FQ5-121" value="0xe2179b8e" style="text;strokeColor=#A50040;fillColor=#d80073;align=left;verticalAlign=middle;spacingLeft=4;spacingRight=4;overflow=hidden;points=[[0,0.5],[1,0.5]];portConstraint=eastwest;rotatable=0;fontColor=#ffffff;" parent="iPiiUVP0ou0iT72m3FQ5-96" vertex="1">
                    <mxGeometry y="180" width="90" height="30" as="geometry"/>
                </mxCell>
                <mxCell id="iPiiUVP0ou0iT72m3FQ5-102" value="stack" style="swimlane;fontStyle=0;childLayout=stackLayout;horizontal=1;startSize=30;horizontalStack=0;resizeParent=1;resizeParentMax=0;resizeLast=0;collapsible=1;marginBottom=0;fillColor=#d80073;fontColor=#ffffff;strokeColor=#A50040;" parent="1" vertex="1" collapsed="1">
                    <mxGeometry x="870" y="-18000" width="60" height="30" as="geometry">
                        <mxRectangle x="870" y="-18000" width="90" height="180" as="alternateBounds"/>
                    </mxGeometry>
                </mxCell>
                <mxCell id="iPiiUVP0ou0iT72m3FQ5-103" value="i &gt; 6" style="text;strokeColor=#A50040;fillColor=#d80073;align=left;verticalAlign=middle;spacingLeft=4;spacingRight=4;overflow=hidden;points=[[0,0.5],[1,0.5]];portConstraint=eastwest;rotatable=0;fontColor=#ffffff;" parent="iPiiUVP0ou0iT72m3FQ5-102" vertex="1">
                    <mxGeometry y="30" width="90" height="30" as="geometry"/>
                </mxCell>
                <mxCell id="iPiiUVP0ou0iT72m3FQ5-105" value="i" style="text;strokeColor=#A50040;fillColor=#d80073;align=left;verticalAlign=middle;spacingLeft=4;spacingRight=4;overflow=hidden;points=[[0,0.5],[1,0.5]];portConstraint=eastwest;rotatable=0;fontColor=#ffffff;" parent="iPiiUVP0ou0iT72m3FQ5-102" vertex="1">
                    <mxGeometry y="60" width="90" height="30" as="geometry"/>
                </mxCell>
                <mxCell id="iPiiUVP0ou0iT72m3FQ5-106" value="0x00" style="text;strokeColor=#A50040;fillColor=#d80073;align=left;verticalAlign=middle;spacingLeft=4;spacingRight=4;overflow=hidden;points=[[0,0.5],[1,0.5]];portConstraint=eastwest;rotatable=0;fontColor=#ffffff;" parent="iPiiUVP0ou0iT72m3FQ5-102" vertex="1">
                    <mxGeometry y="90" width="90" height="30" as="geometry"/>
                </mxCell>
                <mxCell id="iPiiUVP0ou0iT72m3FQ5-107" value="0x008a" style="text;strokeColor=#A50040;fillColor=#d80073;align=left;verticalAlign=middle;spacingLeft=4;spacingRight=4;overflow=hidden;points=[[0,0.5],[1,0.5]];portConstraint=eastwest;rotatable=0;fontColor=#ffffff;" parent="iPiiUVP0ou0iT72m3FQ5-102" vertex="1">
                    <mxGeometry y="120" width="90" height="30" as="geometry"/>
                </mxCell>
                <mxCell id="iPiiUVP0ou0iT72m3FQ5-127" value="0xe2179b8e" style="text;strokeColor=#A50040;fillColor=#d80073;align=left;verticalAlign=middle;spacingLeft=4;spacingRight=4;overflow=hidden;points=[[0,0.5],[1,0.5]];portConstraint=eastwest;rotatable=0;fontColor=#ffffff;" parent="iPiiUVP0ou0iT72m3FQ5-102" vertex="1">
                    <mxGeometry y="150" width="90" height="30" as="geometry"/>
                </mxCell>
                <mxCell id="iPiiUVP0ou0iT72m3FQ5-109" value="stack" style="swimlane;fontStyle=0;childLayout=stackLayout;horizontal=1;startSize=30;horizontalStack=0;resizeParent=1;resizeParentMax=0;resizeLast=0;collapsible=1;marginBottom=0;fillColor=#d80073;fontColor=#ffffff;strokeColor=#A50040;" parent="1" vertex="1" collapsed="1">
                    <mxGeometry x="1150" y="-17750" width="60" height="30" as="geometry">
                        <mxRectangle x="1150" y="-17750" width="90" height="90" as="alternateBounds"/>
                    </mxGeometry>
                </mxCell>
                <mxCell id="iPiiUVP0ou0iT72m3FQ5-110" value="i &gt; 6" style="text;strokeColor=#A50040;fillColor=#d80073;align=left;verticalAlign=middle;spacingLeft=4;spacingRight=4;overflow=hidden;points=[[0,0.5],[1,0.5]];portConstraint=eastwest;rotatable=0;fontColor=#ffffff;" parent="iPiiUVP0ou0iT72m3FQ5-109" vertex="1">
                    <mxGeometry y="30" width="90" height="30" as="geometry"/>
                </mxCell>
                <mxCell id="iPiiUVP0ou0iT72m3FQ5-119" value="0xe2179b8e" style="text;strokeColor=#A50040;fillColor=#d80073;align=left;verticalAlign=middle;spacingLeft=4;spacingRight=4;overflow=hidden;points=[[0,0.5],[1,0.5]];portConstraint=eastwest;rotatable=0;fontColor=#ffffff;" parent="iPiiUVP0ou0iT72m3FQ5-109" vertex="1">
                    <mxGeometry y="60" width="90" height="30" as="geometry"/>
                </mxCell>
                <mxCell id="iPiiUVP0ou0iT72m3FQ5-132" value="stack" style="swimlane;fontStyle=0;childLayout=stackLayout;horizontal=1;startSize=30;horizontalStack=0;resizeParent=1;resizeParentMax=0;resizeLast=0;collapsible=1;marginBottom=0;fillColor=#d80073;fontColor=#ffffff;strokeColor=#A50040;" parent="1" vertex="1" collapsed="1">
                    <mxGeometry x="1150" y="-17530" width="60" height="30" as="geometry">
                        <mxRectangle x="1150" y="-17530" width="110" height="150" as="alternateBounds"/>
                    </mxGeometry>
                </mxCell>
                <mxCell id="iPiiUVP0ou0iT72m3FQ5-135" value="mem[0x40..0x60]" style="text;strokeColor=#A50040;fillColor=#d80073;align=left;verticalAlign=middle;spacingLeft=4;spacingRight=4;overflow=hidden;points=[[0,0.5],[1,0.5]];portConstraint=eastwest;rotatable=0;fontColor=#ffffff;" parent="iPiiUVP0ou0iT72m3FQ5-132" vertex="1">
                    <mxGeometry y="30" width="110" height="30" as="geometry"/>
                </mxCell>
                <mxCell id="iPiiUVP0ou0iT72m3FQ5-133" value="i &gt; 6" style="text;strokeColor=#A50040;fillColor=#d80073;align=left;verticalAlign=middle;spacingLeft=4;spacingRight=4;overflow=hidden;points=[[0,0.5],[1,0.5]];portConstraint=eastwest;rotatable=0;fontColor=#ffffff;" parent="iPiiUVP0ou0iT72m3FQ5-132" vertex="1">
                    <mxGeometry y="60" width="110" height="30" as="geometry"/>
                </mxCell>
                <mxCell id="iPiiUVP0ou0iT72m3FQ5-137" value="0x0097" style="text;strokeColor=#A50040;fillColor=#d80073;align=left;verticalAlign=middle;spacingLeft=4;spacingRight=4;overflow=hidden;points=[[0,0.5],[1,0.5]];portConstraint=eastwest;rotatable=0;fontColor=#ffffff;" parent="iPiiUVP0ou0iT72m3FQ5-132" vertex="1">
                    <mxGeometry y="90" width="110" height="30" as="geometry"/>
                </mxCell>
                <mxCell id="iPiiUVP0ou0iT72m3FQ5-134" value="0xe2179b8e" style="text;strokeColor=#A50040;fillColor=#d80073;align=left;verticalAlign=middle;spacingLeft=4;spacingRight=4;overflow=hidden;points=[[0,0.5],[1,0.5]];portConstraint=eastwest;rotatable=0;fontColor=#ffffff;" parent="iPiiUVP0ou0iT72m3FQ5-132" vertex="1">
                    <mxGeometry y="120" width="110" height="30" as="geometry"/>
                </mxCell>
                <mxCell id="iPiiUVP0ou0iT72m3FQ5-151" value="stack" style="swimlane;fontStyle=0;childLayout=stackLayout;horizontal=1;startSize=30;horizontalStack=0;resizeParent=1;resizeParentMax=0;resizeLast=0;collapsible=1;marginBottom=0;fillColor=#d80073;fontColor=#ffffff;strokeColor=#A50040;" parent="1" vertex="1" collapsed="1">
                    <mxGeometry x="1150" y="-17240" width="60" height="30" as="geometry">
                        <mxRectangle x="1260" y="-17393" width="150" height="270" as="alternateBounds"/>
                    </mxGeometry>
                </mxCell>
                <mxCell id="iPiiUVP0ou0iT72m3FQ5-162" value="i &gt; 6" style="text;strokeColor=#A50040;fillColor=#d80073;align=left;verticalAlign=middle;spacingLeft=4;spacingRight=4;overflow=hidden;points=[[0,0.5],[1,0.5]];portConstraint=eastwest;rotatable=0;fontColor=#ffffff;" parent="iPiiUVP0ou0iT72m3FQ5-151" vertex="1">
                    <mxGeometry y="30" width="150" height="30" as="geometry"/>
                </mxCell>
                <mxCell id="iPiiUVP0ou0iT72m3FQ5-161" value="mem[0x40..0x60]" style="text;strokeColor=#A50040;fillColor=#d80073;align=left;verticalAlign=middle;spacingLeft=4;spacingRight=4;overflow=hidden;points=[[0,0.5],[1,0.5]];portConstraint=eastwest;rotatable=0;fontColor=#ffffff;" parent="iPiiUVP0ou0iT72m3FQ5-151" vertex="1">
                    <mxGeometry y="60" width="150" height="30" as="geometry"/>
                </mxCell>
                <mxCell id="iPiiUVP0ou0iT72m3FQ5-159" value="0x016d" style="text;strokeColor=#A50040;fillColor=#d80073;align=left;verticalAlign=middle;spacingLeft=4;spacingRight=4;overflow=hidden;points=[[0,0.5],[1,0.5]];portConstraint=eastwest;rotatable=0;fontColor=#ffffff;" parent="iPiiUVP0ou0iT72m3FQ5-151" vertex="1">
                    <mxGeometry y="90" width="150" height="30" as="geometry"/>
                </mxCell>
                <mxCell id="iPiiUVP0ou0iT72m3FQ5-158" value="mem[0x40..0x60] + 0x20" style="text;strokeColor=#A50040;fillColor=#d80073;align=left;verticalAlign=middle;spacingLeft=4;spacingRight=4;overflow=hidden;points=[[0,0.5],[1,0.5]];portConstraint=eastwest;rotatable=0;fontColor=#ffffff;" parent="iPiiUVP0ou0iT72m3FQ5-151" vertex="1">
                    <mxGeometry y="120" width="150" height="30" as="geometry"/>
                </mxCell>
                <mxCell id="iPiiUVP0ou0iT72m3FQ5-152" value="mem[0x40..0x60]" style="text;strokeColor=#A50040;fillColor=#d80073;align=left;verticalAlign=middle;spacingLeft=4;spacingRight=4;overflow=hidden;points=[[0,0.5],[1,0.5]];portConstraint=eastwest;rotatable=0;fontColor=#ffffff;" parent="iPiiUVP0ou0iT72m3FQ5-151" vertex="1">
                    <mxGeometry y="150" width="150" height="30" as="geometry"/>
                </mxCell>
                <mxCell id="iPiiUVP0ou0iT72m3FQ5-153" value="i &gt; 6" style="text;strokeColor=#A50040;fillColor=#d80073;align=left;verticalAlign=middle;spacingLeft=4;spacingRight=4;overflow=hidden;points=[[0,0.5],[1,0.5]];portConstraint=eastwest;rotatable=0;fontColor=#ffffff;" parent="iPiiUVP0ou0iT72m3FQ5-151" vertex="1">
                    <mxGeometry y="180" width="150" height="30" as="geometry"/>
                </mxCell>
                <mxCell id="iPiiUVP0ou0iT72m3FQ5-154" value="0x0097" style="text;strokeColor=#A50040;fillColor=#d80073;align=left;verticalAlign=middle;spacingLeft=4;spacingRight=4;overflow=hidden;points=[[0,0.5],[1,0.5]];portConstraint=eastwest;rotatable=0;fontColor=#ffffff;" parent="iPiiUVP0ou0iT72m3FQ5-151" vertex="1">
                    <mxGeometry y="210" width="150" height="30" as="geometry"/>
                </mxCell>
                <mxCell id="iPiiUVP0ou0iT72m3FQ5-155" value="0xe2179b8e" style="text;strokeColor=#A50040;fillColor=#d80073;align=left;verticalAlign=middle;spacingLeft=4;spacingRight=4;overflow=hidden;points=[[0,0.5],[1,0.5]];portConstraint=eastwest;rotatable=0;fontColor=#ffffff;" parent="iPiiUVP0ou0iT72m3FQ5-151" vertex="1">
                    <mxGeometry y="240" width="150" height="30" as="geometry"/>
                </mxCell>
                <mxCell id="iPiiUVP0ou0iT72m3FQ5-163" value="stack" style="swimlane;fontStyle=0;childLayout=stackLayout;horizontal=1;startSize=30;horizontalStack=0;resizeParent=1;resizeParentMax=0;resizeLast=0;collapsible=1;marginBottom=0;fillColor=#d80073;fontColor=#ffffff;strokeColor=#A50040;" parent="1" vertex="1" collapsed="1">
                    <mxGeometry x="1155" y="-17080" width="60" height="30" as="geometry">
                        <mxRectangle x="1155" y="-17080" width="150" height="330" as="alternateBounds"/>
                    </mxGeometry>
                </mxCell>
                <mxCell id="iPiiUVP0ou0iT72m3FQ5-173" value="i &gt; 6" style="text;strokeColor=#A50040;fillColor=#d80073;align=left;verticalAlign=middle;spacingLeft=4;spacingRight=4;overflow=hidden;points=[[0,0.5],[1,0.5]];portConstraint=eastwest;rotatable=0;fontColor=#ffffff;" parent="iPiiUVP0ou0iT72m3FQ5-163" vertex="1">
                    <mxGeometry y="30" width="150" height="30" as="geometry"/>
                </mxCell>
                <mxCell id="iPiiUVP0ou0iT72m3FQ5-172" value="0x0143" style="text;strokeColor=#A50040;fillColor=#d80073;align=left;verticalAlign=middle;spacingLeft=4;spacingRight=4;overflow=hidden;points=[[0,0.5],[1,0.5]];portConstraint=eastwest;rotatable=0;fontColor=#ffffff;" parent="iPiiUVP0ou0iT72m3FQ5-163" vertex="1">
                    <mxGeometry y="60" width="150" height="30" as="geometry"/>
                </mxCell>
                <mxCell id="iPiiUVP0ou0iT72m3FQ5-164" value="i &gt; 6" style="text;strokeColor=#A50040;fillColor=#d80073;align=left;verticalAlign=middle;spacingLeft=4;spacingRight=4;overflow=hidden;points=[[0,0.5],[1,0.5]];portConstraint=eastwest;rotatable=0;fontColor=#ffffff;" parent="iPiiUVP0ou0iT72m3FQ5-163" vertex="1">
                    <mxGeometry y="90" width="150" height="30" as="geometry"/>
                </mxCell>
                <mxCell id="iPiiUVP0ou0iT72m3FQ5-165" value="mem[0x40..0x60]" style="text;strokeColor=#A50040;fillColor=#d80073;align=left;verticalAlign=middle;spacingLeft=4;spacingRight=4;overflow=hidden;points=[[0,0.5],[1,0.5]];portConstraint=eastwest;rotatable=0;fontColor=#ffffff;" parent="iPiiUVP0ou0iT72m3FQ5-163" vertex="1">
                    <mxGeometry y="120" width="150" height="30" as="geometry"/>
                </mxCell>
                <mxCell id="iPiiUVP0ou0iT72m3FQ5-166" value="0x016d" style="text;strokeColor=#A50040;fillColor=#d80073;align=left;verticalAlign=middle;spacingLeft=4;spacingRight=4;overflow=hidden;points=[[0,0.5],[1,0.5]];portConstraint=eastwest;rotatable=0;fontColor=#ffffff;" parent="iPiiUVP0ou0iT72m3FQ5-163" vertex="1">
                    <mxGeometry y="150" width="150" height="30" as="geometry"/>
                </mxCell>
                <mxCell id="iPiiUVP0ou0iT72m3FQ5-167" value="mem[0x40..0x60] + 0x20" style="text;strokeColor=#A50040;fillColor=#d80073;align=left;verticalAlign=middle;spacingLeft=4;spacingRight=4;overflow=hidden;points=[[0,0.5],[1,0.5]];portConstraint=eastwest;rotatable=0;fontColor=#ffffff;" parent="iPiiUVP0ou0iT72m3FQ5-163" vertex="1">
                    <mxGeometry y="180" width="150" height="30" as="geometry"/>
                </mxCell>
                <mxCell id="iPiiUVP0ou0iT72m3FQ5-168" value="mem[0x40..0x60]" style="text;strokeColor=#A50040;fillColor=#d80073;align=left;verticalAlign=middle;spacingLeft=4;spacingRight=4;overflow=hidden;points=[[0,0.5],[1,0.5]];portConstraint=eastwest;rotatable=0;fontColor=#ffffff;" parent="iPiiUVP0ou0iT72m3FQ5-163" vertex="1">
                    <mxGeometry y="210" width="150" height="30" as="geometry"/>
                </mxCell>
                <mxCell id="iPiiUVP0ou0iT72m3FQ5-169" value="i &gt; 6" style="text;strokeColor=#A50040;fillColor=#d80073;align=left;verticalAlign=middle;spacingLeft=4;spacingRight=4;overflow=hidden;points=[[0,0.5],[1,0.5]];portConstraint=eastwest;rotatable=0;fontColor=#ffffff;" parent="iPiiUVP0ou0iT72m3FQ5-163" vertex="1">
                    <mxGeometry y="240" width="150" height="30" as="geometry"/>
                </mxCell>
                <mxCell id="iPiiUVP0ou0iT72m3FQ5-170" value="0x0097" style="text;strokeColor=#A50040;fillColor=#d80073;align=left;verticalAlign=middle;spacingLeft=4;spacingRight=4;overflow=hidden;points=[[0,0.5],[1,0.5]];portConstraint=eastwest;rotatable=0;fontColor=#ffffff;" parent="iPiiUVP0ou0iT72m3FQ5-163" vertex="1">
                    <mxGeometry y="270" width="150" height="30" as="geometry"/>
                </mxCell>
                <mxCell id="iPiiUVP0ou0iT72m3FQ5-171" value="0xe2179b8e" style="text;strokeColor=#A50040;fillColor=#d80073;align=left;verticalAlign=middle;spacingLeft=4;spacingRight=4;overflow=hidden;points=[[0,0.5],[1,0.5]];portConstraint=eastwest;rotatable=0;fontColor=#ffffff;" parent="iPiiUVP0ou0iT72m3FQ5-163" vertex="1">
                    <mxGeometry y="300" width="150" height="30" as="geometry"/>
                </mxCell>
                <mxCell id="iPiiUVP0ou0iT72m3FQ5-174" value="stack" style="swimlane;fontStyle=0;childLayout=stackLayout;horizontal=1;startSize=30;horizontalStack=0;resizeParent=1;resizeParentMax=0;resizeLast=0;collapsible=1;marginBottom=0;fillColor=#d80073;fontColor=#ffffff;strokeColor=#A50040;" parent="1" vertex="1" collapsed="1">
                    <mxGeometry x="1150" y="-16830" width="60" height="30" as="geometry">
                        <mxRectangle x="1150" y="-16830" width="150" height="300" as="alternateBounds"/>
                    </mxGeometry>
                </mxCell>
                <mxCell id="iPiiUVP0ou0iT72m3FQ5-186" value="((i &gt; 6) == 0) == 0" style="text;strokeColor=#A50040;fillColor=#d80073;align=left;verticalAlign=middle;spacingLeft=4;spacingRight=4;overflow=hidden;points=[[0,0.5],[1,0.5]];portConstraint=eastwest;rotatable=0;fontColor=#ffffff;" parent="iPiiUVP0ou0iT72m3FQ5-174" vertex="1">
                    <mxGeometry y="30" width="150" height="30" as="geometry"/>
                </mxCell>
                <mxCell id="iPiiUVP0ou0iT72m3FQ5-177" value="i &gt; 6" style="text;strokeColor=#A50040;fillColor=#d80073;align=left;verticalAlign=middle;spacingLeft=4;spacingRight=4;overflow=hidden;points=[[0,0.5],[1,0.5]];portConstraint=eastwest;rotatable=0;fontColor=#ffffff;" parent="iPiiUVP0ou0iT72m3FQ5-174" vertex="1">
                    <mxGeometry y="60" width="150" height="30" as="geometry"/>
                </mxCell>
                <mxCell id="iPiiUVP0ou0iT72m3FQ5-178" value="mem[0x40..0x60]" style="text;strokeColor=#A50040;fillColor=#d80073;align=left;verticalAlign=middle;spacingLeft=4;spacingRight=4;overflow=hidden;points=[[0,0.5],[1,0.5]];portConstraint=eastwest;rotatable=0;fontColor=#ffffff;" parent="iPiiUVP0ou0iT72m3FQ5-174" vertex="1">
                    <mxGeometry y="90" width="150" height="30" as="geometry"/>
                </mxCell>
                <mxCell id="iPiiUVP0ou0iT72m3FQ5-179" value="0x016d" style="text;strokeColor=#A50040;fillColor=#d80073;align=left;verticalAlign=middle;spacingLeft=4;spacingRight=4;overflow=hidden;points=[[0,0.5],[1,0.5]];portConstraint=eastwest;rotatable=0;fontColor=#ffffff;" parent="iPiiUVP0ou0iT72m3FQ5-174" vertex="1">
                    <mxGeometry y="120" width="150" height="30" as="geometry"/>
                </mxCell>
                <mxCell id="iPiiUVP0ou0iT72m3FQ5-180" value="mem[0x40..0x60] + 0x20" style="text;strokeColor=#A50040;fillColor=#d80073;align=left;verticalAlign=middle;spacingLeft=4;spacingRight=4;overflow=hidden;points=[[0,0.5],[1,0.5]];portConstraint=eastwest;rotatable=0;fontColor=#ffffff;" parent="iPiiUVP0ou0iT72m3FQ5-174" vertex="1">
                    <mxGeometry y="150" width="150" height="30" as="geometry"/>
                </mxCell>
                <mxCell id="iPiiUVP0ou0iT72m3FQ5-181" value="mem[0x40..0x60]" style="text;strokeColor=#A50040;fillColor=#d80073;align=left;verticalAlign=middle;spacingLeft=4;spacingRight=4;overflow=hidden;points=[[0,0.5],[1,0.5]];portConstraint=eastwest;rotatable=0;fontColor=#ffffff;" parent="iPiiUVP0ou0iT72m3FQ5-174" vertex="1">
                    <mxGeometry y="180" width="150" height="30" as="geometry"/>
                </mxCell>
                <mxCell id="iPiiUVP0ou0iT72m3FQ5-182" value="i &gt; 6" style="text;strokeColor=#A50040;fillColor=#d80073;align=left;verticalAlign=middle;spacingLeft=4;spacingRight=4;overflow=hidden;points=[[0,0.5],[1,0.5]];portConstraint=eastwest;rotatable=0;fontColor=#ffffff;" parent="iPiiUVP0ou0iT72m3FQ5-174" vertex="1">
                    <mxGeometry y="210" width="150" height="30" as="geometry"/>
                </mxCell>
                <mxCell id="iPiiUVP0ou0iT72m3FQ5-183" value="0x0097" style="text;strokeColor=#A50040;fillColor=#d80073;align=left;verticalAlign=middle;spacingLeft=4;spacingRight=4;overflow=hidden;points=[[0,0.5],[1,0.5]];portConstraint=eastwest;rotatable=0;fontColor=#ffffff;" parent="iPiiUVP0ou0iT72m3FQ5-174" vertex="1">
                    <mxGeometry y="240" width="150" height="30" as="geometry"/>
                </mxCell>
                <mxCell id="iPiiUVP0ou0iT72m3FQ5-184" value="0xe2179b8e" style="text;strokeColor=#A50040;fillColor=#d80073;align=left;verticalAlign=middle;spacingLeft=4;spacingRight=4;overflow=hidden;points=[[0,0.5],[1,0.5]];portConstraint=eastwest;rotatable=0;fontColor=#ffffff;" parent="iPiiUVP0ou0iT72m3FQ5-174" vertex="1">
                    <mxGeometry y="270" width="150" height="30" as="geometry"/>
                </mxCell>
                <mxCell id="iPiiUVP0ou0iT72m3FQ5-187" value="stack" style="swimlane;fontStyle=0;childLayout=stackLayout;horizontal=1;startSize=30;horizontalStack=0;resizeParent=1;resizeParentMax=0;resizeLast=0;collapsible=1;marginBottom=0;fillColor=#d80073;fontColor=#ffffff;strokeColor=#A50040;" parent="1" vertex="1" collapsed="1">
                    <mxGeometry x="1155" y="-16650" width="60" height="30" as="geometry">
                        <mxRectangle x="1155" y="-16650" width="150" height="180" as="alternateBounds"/>
                    </mxGeometry>
                </mxCell>
                <mxCell id="iPiiUVP0ou0iT72m3FQ5-192" value="mem[0x40..0x60] + 0x20" style="text;strokeColor=#A50040;fillColor=#d80073;align=left;verticalAlign=middle;spacingLeft=4;spacingRight=4;overflow=hidden;points=[[0,0.5],[1,0.5]];portConstraint=eastwest;rotatable=0;fontColor=#ffffff;" parent="iPiiUVP0ou0iT72m3FQ5-187" vertex="1">
                    <mxGeometry y="30" width="150" height="30" as="geometry"/>
                </mxCell>
                <mxCell id="iPiiUVP0ou0iT72m3FQ5-193" value="mem[0x40..0x60]" style="text;strokeColor=#A50040;fillColor=#d80073;align=left;verticalAlign=middle;spacingLeft=4;spacingRight=4;overflow=hidden;points=[[0,0.5],[1,0.5]];portConstraint=eastwest;rotatable=0;fontColor=#ffffff;" parent="iPiiUVP0ou0iT72m3FQ5-187" vertex="1">
                    <mxGeometry y="60" width="150" height="30" as="geometry"/>
                </mxCell>
                <mxCell id="iPiiUVP0ou0iT72m3FQ5-194" value="i &gt; 6" style="text;strokeColor=#A50040;fillColor=#d80073;align=left;verticalAlign=middle;spacingLeft=4;spacingRight=4;overflow=hidden;points=[[0,0.5],[1,0.5]];portConstraint=eastwest;rotatable=0;fontColor=#ffffff;" parent="iPiiUVP0ou0iT72m3FQ5-187" vertex="1">
                    <mxGeometry y="90" width="150" height="30" as="geometry"/>
                </mxCell>
                <mxCell id="iPiiUVP0ou0iT72m3FQ5-195" value="0x0097" style="text;strokeColor=#A50040;fillColor=#d80073;align=left;verticalAlign=middle;spacingLeft=4;spacingRight=4;overflow=hidden;points=[[0,0.5],[1,0.5]];portConstraint=eastwest;rotatable=0;fontColor=#ffffff;" parent="iPiiUVP0ou0iT72m3FQ5-187" vertex="1">
                    <mxGeometry y="120" width="150" height="30" as="geometry"/>
                </mxCell>
                <mxCell id="iPiiUVP0ou0iT72m3FQ5-196" value="0xe2179b8e" style="text;strokeColor=#A50040;fillColor=#d80073;align=left;verticalAlign=middle;spacingLeft=4;spacingRight=4;overflow=hidden;points=[[0,0.5],[1,0.5]];portConstraint=eastwest;rotatable=0;fontColor=#ffffff;" parent="iPiiUVP0ou0iT72m3FQ5-187" vertex="1">
                    <mxGeometry y="150" width="150" height="30" as="geometry"/>
                </mxCell>
                <mxCell id="iPiiUVP0ou0iT72m3FQ5-198" value="mstore(&lt;span style=&quot;text-align: left;&quot;&gt;mem[0x40..0x60],&amp;nbsp;&lt;/span&gt;&lt;span style=&quot;text-align: left;&quot;&gt;((i &amp;gt; 6) == 0) == 0)&lt;/span&gt;&lt;span style=&quot;text-align: left;&quot;&gt;&lt;br&gt;&lt;/span&gt;" style="shape=display;whiteSpace=wrap;html=1;fillColor=#d80073;fontColor=#ffffff;strokeColor=#A50040;" parent="1" vertex="1">
                    <mxGeometry x="1235" y="-16740" width="290" height="40" as="geometry"/>
                </mxCell>
                <mxCell id="iPiiUVP0ou0iT72m3FQ5-199" value="label_016D" style="swimlane;childLayout=stackLayout;horizontal=1;startSize=30;horizontalStack=0;rounded=1;fontSize=14;fontStyle=0;strokeWidth=2;resizeParent=0;resizeLast=1;shadow=0;dashed=0;align=center;fontColor=#330000;" parent="1" vertex="1">
                    <mxGeometry x="1050" y="-16610" width="180" height="128" as="geometry"/>
                </mxCell>
                <mxCell id="iPiiUVP0ou0iT72m3FQ5-200" value="&#9;016D    5B  JUMPDEST&#10;&#9;016E    92  SWAP3&#10;&#9;016F    91  SWAP2&#10;&#9;0170    50  POP&#10;&#9;0171    50  POP&#10;&#9;0172    56  *JUMP" style="align=left;strokeColor=none;fillColor=none;spacingLeft=4;fontSize=12;verticalAlign=top;resizable=0;rotatable=0;part=1;fontColor=#330000;" parent="iPiiUVP0ou0iT72m3FQ5-199" vertex="1">
                    <mxGeometry y="30" width="180" height="98" as="geometry"/>
                </mxCell>
                <mxCell id="iPiiUVP0ou0iT72m3FQ5-202" style="edgeStyle=orthogonalEdgeStyle;rounded=0;orthogonalLoop=1;jettySize=auto;html=1;entryX=0.5;entryY=0;entryDx=0;entryDy=0;" parent="1" source="iPiiUVP0ou0iT72m3FQ5-200" target="hXesR2zMLgFzcu8kpUQh-85" edge="1">
                    <mxGeometry relative="1" as="geometry"/>
                </mxCell>
                <mxCell id="iPiiUVP0ou0iT72m3FQ5-203" value="stack" style="swimlane;fontStyle=0;childLayout=stackLayout;horizontal=1;startSize=30;horizontalStack=0;resizeParent=1;resizeParentMax=0;resizeLast=0;collapsible=1;marginBottom=0;fillColor=#d80073;fontColor=#ffffff;strokeColor=#A50040;" parent="1" vertex="1" collapsed="1">
                    <mxGeometry x="1155" y="-16471" width="60" height="30" as="geometry">
                        <mxRectangle x="1155" y="-16471" width="150" height="90" as="alternateBounds"/>
                    </mxGeometry>
                </mxCell>
                <mxCell id="iPiiUVP0ou0iT72m3FQ5-204" value="mem[0x40..0x60] + 0x20" style="text;strokeColor=#A50040;fillColor=#d80073;align=left;verticalAlign=middle;spacingLeft=4;spacingRight=4;overflow=hidden;points=[[0,0.5],[1,0.5]];portConstraint=eastwest;rotatable=0;fontColor=#ffffff;" parent="iPiiUVP0ou0iT72m3FQ5-203" vertex="1">
                    <mxGeometry y="30" width="150" height="30" as="geometry"/>
                </mxCell>
                <mxCell id="iPiiUVP0ou0iT72m3FQ5-208" value="0xe2179b8e" style="text;strokeColor=#A50040;fillColor=#d80073;align=left;verticalAlign=middle;spacingLeft=4;spacingRight=4;overflow=hidden;points=[[0,0.5],[1,0.5]];portConstraint=eastwest;rotatable=0;fontColor=#ffffff;" parent="iPiiUVP0ou0iT72m3FQ5-203" vertex="1">
                    <mxGeometry y="60" width="150" height="30" as="geometry"/>
                </mxCell>
                <mxCell id="iPiiUVP0ou0iT72m3FQ5-215" value="stack" style="swimlane;fontStyle=0;childLayout=stackLayout;horizontal=1;startSize=30;horizontalStack=0;resizeParent=1;resizeParentMax=0;resizeLast=0;collapsible=1;marginBottom=0;fillColor=#d80073;fontColor=#ffffff;strokeColor=#A50040;" parent="1" vertex="1" collapsed="1">
                    <mxGeometry x="1155" y="-16250" width="60" height="30" as="geometry">
                        <mxRectangle x="1155" y="-16250" width="85" height="60" as="alternateBounds"/>
                    </mxGeometry>
                </mxCell>
                <mxCell id="iPiiUVP0ou0iT72m3FQ5-217" value="0xe2179b8e" style="text;strokeColor=#A50040;fillColor=#d80073;align=left;verticalAlign=middle;spacingLeft=4;spacingRight=4;overflow=hidden;points=[[0,0.5],[1,0.5]];portConstraint=eastwest;rotatable=0;fontColor=#ffffff;" parent="iPiiUVP0ou0iT72m3FQ5-215" vertex="1">
                    <mxGeometry y="30" width="85" height="30" as="geometry"/>
                </mxCell>
                <mxCell id="iPiiUVP0ou0iT72m3FQ5-220" value="return(&lt;span style=&quot;text-align: left;&quot;&gt;mem[0x20..(0x20 + mem[0x40..0x60]&lt;/span&gt;&lt;span style=&quot;text-align: left;&quot;&gt;)])&lt;/span&gt;&lt;span style=&quot;text-align: left;&quot;&gt;&lt;br&gt;&lt;/span&gt;" style="shape=display;whiteSpace=wrap;html=1;fillColor=#d80073;fontColor=#ffffff;strokeColor=#A50040;" parent="1" vertex="1">
                    <mxGeometry x="1235" y="-16310" width="335" height="40" as="geometry"/>
                </mxCell>
                <mxCell id="6" value="&lt;font color=&quot;#007fff&quot;&gt;0&lt;/font&gt;" style="text;html=1;align=center;verticalAlign=middle;resizable=0;points=[];autosize=1;strokeColor=none;fillColor=none;" parent="1" vertex="1">
                    <mxGeometry x="1141" y="-19922" width="17" height="18" as="geometry"/>
                </mxCell>
                <mxCell id="7" value="&lt;font color=&quot;#007fff&quot;&gt;1&lt;/font&gt;" style="text;html=1;align=center;verticalAlign=middle;resizable=0;points=[];autosize=1;strokeColor=none;fillColor=none;" parent="1" vertex="1">
                    <mxGeometry x="1119" y="-19733" width="17" height="18" as="geometry"/>
                </mxCell>
                <mxCell id="8" value="&lt;font color=&quot;#007fff&quot;&gt;0&lt;/font&gt;" style="text;html=1;align=center;verticalAlign=middle;resizable=0;points=[];autosize=1;strokeColor=none;fillColor=none;" parent="1" vertex="1">
                    <mxGeometry x="1116.5" y="-19483" width="17" height="18" as="geometry"/>
                </mxCell>
                <mxCell id="11" value="&lt;font color=&quot;#007fff&quot;&gt;1&lt;br&gt;&lt;br&gt;&lt;/font&gt;" style="text;html=1;align=center;verticalAlign=middle;resizable=0;points=[];autosize=1;strokeColor=none;fillColor=none;" parent="1" vertex="1">
                    <mxGeometry x="983" y="-19299" width="17" height="32" as="geometry"/>
                </mxCell>
                <mxCell id="14" value="&lt;font color=&quot;#007fff&quot;&gt;2&lt;/font&gt;" style="text;html=1;align=center;verticalAlign=middle;resizable=0;points=[];autosize=1;strokeColor=none;fillColor=none;" parent="1" vertex="1">
                    <mxGeometry x="-274" y="-18818" width="17" height="18" as="geometry"/>
                </mxCell>
                <mxCell id="15" value="&lt;font color=&quot;#007fff&quot;&gt;3&lt;/font&gt;" style="text;html=1;align=center;verticalAlign=middle;resizable=0;points=[];autosize=1;strokeColor=none;fillColor=none;" parent="1" vertex="1">
                    <mxGeometry x="-287" y="-18695" width="17" height="18" as="geometry"/>
                </mxCell>
                <mxCell id="16" value="&lt;font color=&quot;#007fff&quot;&gt;5&lt;/font&gt;" style="text;html=1;align=center;verticalAlign=middle;resizable=0;points=[];autosize=1;strokeColor=none;fillColor=none;" parent="1" vertex="1">
                    <mxGeometry x="-304" y="-18503" width="17" height="18" as="geometry"/>
                </mxCell>
                <mxCell id="17" value="&lt;font color=&quot;#007fff&quot;&gt;n&lt;/font&gt;" style="text;html=1;align=center;verticalAlign=middle;resizable=0;points=[];autosize=1;strokeColor=none;fillColor=none;" parent="1" vertex="1">
                    <mxGeometry x="-268.5" y="-17935" width="17" height="18" as="geometry"/>
                </mxCell>
                <mxCell id="18" value="&lt;font color=&quot;#007fff&quot;&gt;n+3&lt;/font&gt;" style="text;html=1;align=center;verticalAlign=middle;resizable=0;points=[];autosize=1;strokeColor=none;fillColor=none;" parent="1" vertex="1">
                    <mxGeometry x="-247" y="-17644" width="30" height="18" as="geometry"/>
                </mxCell>
                <mxCell id="19" value="&lt;font color=&quot;#007fff&quot;&gt;n+5&lt;br&gt;&lt;br&gt;&lt;/font&gt;" style="text;html=1;align=center;verticalAlign=middle;resizable=0;points=[];autosize=1;strokeColor=none;fillColor=none;" parent="1" vertex="1">
                    <mxGeometry x="-242" y="-17422" width="30" height="32" as="geometry"/>
                </mxCell>
                <mxCell id="20" value="&lt;font color=&quot;#007fff&quot;&gt;n+4&lt;br&gt;&lt;br&gt;&lt;/font&gt;" style="text;html=1;align=center;verticalAlign=middle;resizable=0;points=[];autosize=1;strokeColor=none;fillColor=none;" parent="1" vertex="1">
                    <mxGeometry x="-170" y="-17193" width="30" height="32" as="geometry"/>
                </mxCell>
                <mxCell id="21" value="&lt;font color=&quot;#007fff&quot;&gt;n&lt;br&gt;&lt;br&gt;&lt;/font&gt;" style="text;html=1;align=center;verticalAlign=middle;resizable=0;points=[];autosize=1;strokeColor=none;fillColor=none;" parent="1" vertex="1">
                    <mxGeometry x="-166" y="-17022" width="17" height="32" as="geometry"/>
                </mxCell>
                <mxCell id="22" value="&lt;font color=&quot;#007fff&quot;&gt;n-3&lt;br&gt;&lt;br&gt;&lt;/font&gt;" style="text;html=1;align=center;verticalAlign=middle;resizable=0;points=[];autosize=1;strokeColor=none;fillColor=none;" parent="1" vertex="1">
                    <mxGeometry x="-264" y="-16840" width="27" height="32" as="geometry"/>
                </mxCell>
                <mxCell id="23" value="&lt;font color=&quot;#007fff&quot;&gt;1&lt;br&gt;&lt;br&gt;&lt;/font&gt;" style="text;html=1;align=center;verticalAlign=middle;resizable=0;points=[];autosize=1;strokeColor=none;fillColor=none;" parent="1" vertex="1">
                    <mxGeometry x="983" y="-19110" width="17" height="32" as="geometry"/>
                </mxCell>
                <mxCell id="24" value="&lt;font color=&quot;#007fff&quot;&gt;1&lt;br&gt;&lt;br&gt;&lt;/font&gt;" style="text;html=1;align=center;verticalAlign=middle;resizable=0;points=[];autosize=1;strokeColor=none;fillColor=none;" parent="1" vertex="1">
                    <mxGeometry x="1193" y="-18975" width="17" height="32" as="geometry"/>
                </mxCell>
                <mxCell id="25" value="&lt;font color=&quot;#007fff&quot;&gt;2&lt;br&gt;&lt;/font&gt;" style="text;html=1;align=center;verticalAlign=middle;resizable=0;points=[];autosize=1;strokeColor=none;fillColor=none;" parent="1" vertex="1">
                    <mxGeometry x="503" y="-18830" width="17" height="18" as="geometry"/>
                </mxCell>
                <mxCell id="26" value="&lt;font color=&quot;#007fff&quot;&gt;5&lt;br&gt;&lt;/font&gt;" style="text;html=1;align=center;verticalAlign=middle;resizable=0;points=[];autosize=1;strokeColor=none;fillColor=none;" parent="1" vertex="1">
                    <mxGeometry x="507" y="-18643" width="17" height="18" as="geometry"/>
                </mxCell>
                <mxCell id="27" value="&lt;font color=&quot;#007fff&quot;&gt;5&lt;br&gt;&lt;/font&gt;" style="text;html=1;align=center;verticalAlign=middle;resizable=0;points=[];autosize=1;strokeColor=none;fillColor=none;" parent="1" vertex="1">
                    <mxGeometry x="386" y="-18470" width="17" height="18" as="geometry"/>
                </mxCell>
                <mxCell id="28" value="&lt;font color=&quot;#007fff&quot;&gt;2&lt;br&gt;&lt;/font&gt;" style="text;html=1;align=center;verticalAlign=middle;resizable=0;points=[];autosize=1;strokeColor=none;fillColor=none;" parent="1" vertex="1">
                    <mxGeometry x="210" y="-18203" width="17" height="18" as="geometry"/>
                </mxCell>
                <mxCell id="29" value="&lt;font color=&quot;#007fff&quot;&gt;4&lt;br&gt;&lt;/font&gt;" style="text;html=1;align=center;verticalAlign=middle;resizable=0;points=[];autosize=1;strokeColor=none;fillColor=none;" parent="1" vertex="1">
                    <mxGeometry x="102" y="-18000" width="17" height="18" as="geometry"/>
                </mxCell>
                <mxCell id="30" value="&lt;font color=&quot;#007fff&quot;&gt;8&lt;br&gt;&lt;br&gt;&lt;/font&gt;" style="text;html=1;align=center;verticalAlign=middle;resizable=0;points=[];autosize=1;strokeColor=none;fillColor=none;" parent="1" vertex="1">
                    <mxGeometry x="573" y="-18293" width="17" height="32" as="geometry"/>
                </mxCell>
                <mxCell id="31" value="&lt;font color=&quot;#007fff&quot;&gt;n&lt;br&gt;&lt;br&gt;&lt;/font&gt;" style="text;html=1;align=center;verticalAlign=middle;resizable=0;points=[];autosize=1;strokeColor=none;fillColor=none;" parent="1" vertex="1">
                    <mxGeometry x="818" y="-18275" width="17" height="32" as="geometry"/>
                </mxCell>
                <mxCell id="32" value="&lt;font color=&quot;#007fff&quot;&gt;n-1&lt;br&gt;&lt;br&gt;&lt;br&gt;&lt;/font&gt;" style="text;html=1;align=center;verticalAlign=middle;resizable=0;points=[];autosize=1;strokeColor=none;fillColor=none;" parent="1" vertex="1">
                    <mxGeometry x="796" y="-18034" width="27" height="46" as="geometry"/>
                </mxCell>
                <mxCell id="33" value="&lt;font color=&quot;#007fff&quot;&gt;7&lt;br&gt;&lt;br&gt;&lt;/font&gt;" style="text;html=1;align=center;verticalAlign=middle;resizable=0;points=[];autosize=1;strokeColor=none;fillColor=none;" parent="1" vertex="1">
                    <mxGeometry x="361.5" y="-18100" width="17" height="32" as="geometry"/>
                </mxCell>
                <mxCell id="35" value="&lt;font color=&quot;#007fff&quot;&gt;6&lt;br&gt;&lt;br&gt;&lt;/font&gt;" style="text;html=1;align=center;verticalAlign=middle;resizable=0;points=[];autosize=1;strokeColor=none;fillColor=none;" parent="1" vertex="1">
                    <mxGeometry x="403" y="-17899" width="17" height="32" as="geometry"/>
                </mxCell>
                <mxCell id="36" value="&lt;font color=&quot;#007fff&quot;&gt;7&lt;br&gt;&lt;br&gt;&lt;/font&gt;" style="text;html=1;align=center;verticalAlign=middle;resizable=0;points=[];autosize=1;strokeColor=none;fillColor=none;" parent="1" vertex="1">
                    <mxGeometry x="391.5" y="-17735" width="17" height="32" as="geometry"/>
                </mxCell>
                <mxCell id="37" value="&lt;font color=&quot;#007fff&quot;&gt;8&lt;br&gt;&lt;br&gt;&lt;/font&gt;" style="text;html=1;align=center;verticalAlign=middle;resizable=0;points=[];autosize=1;strokeColor=none;fillColor=none;" parent="1" vertex="1">
                    <mxGeometry x="369" y="-17468" width="17" height="32" as="geometry"/>
                </mxCell>
                <mxCell id="38" value="&lt;font color=&quot;#007fff&quot;&gt;2&lt;br&gt;&lt;/font&gt;" style="text;html=1;align=center;verticalAlign=middle;resizable=0;points=[];autosize=1;strokeColor=none;fillColor=none;" parent="1" vertex="1">
                    <mxGeometry x="1557" y="-18816" width="17" height="18" as="geometry"/>
                </mxCell>
                <mxCell id="39" value="&lt;font color=&quot;#007fff&quot;&gt;4&lt;br&gt;&lt;/font&gt;" style="text;html=1;align=center;verticalAlign=middle;resizable=0;points=[];autosize=1;strokeColor=none;fillColor=none;" parent="1" vertex="1">
                    <mxGeometry x="1488" y="-18570" width="17" height="18" as="geometry"/>
                </mxCell>
                <mxCell id="40" value="&lt;font color=&quot;#007fff&quot;&gt;6&lt;br&gt;&lt;/font&gt;" style="text;html=1;align=center;verticalAlign=middle;resizable=0;points=[];autosize=1;strokeColor=none;fillColor=none;" parent="1" vertex="1">
                    <mxGeometry x="1522" y="-18397" width="17" height="18" as="geometry"/>
                </mxCell>
                <mxCell id="41" value="&lt;font color=&quot;#007fff&quot;&gt;5&lt;br&gt;&lt;br&gt;&lt;/font&gt;" style="text;html=1;align=center;verticalAlign=middle;resizable=0;points=[];autosize=1;strokeColor=none;fillColor=none;" parent="1" vertex="1">
                    <mxGeometry x="1271.5" y="-18259" width="17" height="32" as="geometry"/>
                </mxCell>
                <mxCell id="42" value="&lt;font color=&quot;#007fff&quot;&gt;4&lt;br&gt;&lt;br&gt;&lt;/font&gt;" style="text;html=1;align=center;verticalAlign=middle;resizable=0;points=[];autosize=1;strokeColor=none;fillColor=none;" parent="1" vertex="1">
                    <mxGeometry x="1366" y="-18127" width="17" height="32" as="geometry"/>
                </mxCell>
                <mxCell id="43" value="&lt;font color=&quot;#007fff&quot;&gt;6&lt;br&gt;&lt;br&gt;&lt;/font&gt;" style="text;html=1;align=center;verticalAlign=middle;resizable=0;points=[];autosize=1;strokeColor=none;fillColor=none;" parent="1" vertex="1">
                    <mxGeometry x="1294" y="-17956" width="17" height="32" as="geometry"/>
                </mxCell>
                <mxCell id="44" value="&lt;font color=&quot;#007fff&quot;&gt;5&lt;br&gt;&lt;/font&gt;" style="text;html=1;align=center;verticalAlign=middle;resizable=0;points=[];autosize=1;strokeColor=none;fillColor=none;" parent="1" vertex="1">
                    <mxGeometry x="1129" y="-17915" width="17" height="18" as="geometry"/>
                </mxCell>
                <mxCell id="45" value="&lt;font color=&quot;#007fff&quot;&gt;4&lt;br&gt;&lt;br&gt;&lt;/font&gt;" style="text;html=1;align=center;verticalAlign=middle;resizable=0;points=[];autosize=1;strokeColor=none;fillColor=none;" parent="1" vertex="1">
                    <mxGeometry x="1471" y="-17903" width="17" height="32" as="geometry"/>
                </mxCell>
            </root>
        </mxGraphModel>
    </diagram>
</mxfile>